<svg width="343" height="342" viewBox="0 0 343 342" fill="none" xmlns="http://www.w3.org/2000/svg">
<path d="M315.701 0C315.701 9.92754 315.238 19.8063 314.335 29.5875L313.969 33.2707L340.142 36.0026C341.264 25.4164 341.874 14.7571 342.02 4.02468V0H315.701ZM226.256 0C226.256 40.2712 215.718 78.9812 196.034 113.081L194.961 114.935L217.596 128.326C239.988 90.4211 252.16 47.2717 252.55 2.34163V0H226.256ZM144.689 0C144.689 53.1013 115.833 101.129 70.3421 126.472L68.9518 127.229L81.5136 150.352C135.664 120.96 170.325 64.5412 171.008 1.90257V0H144.713H144.689ZM40.7546 138.888C28.3635 142.522 15.4601 144.474 2.31284 144.693H-0.00439453V171.012C15.6797 171.012 31.0954 168.89 45.9501 164.768L48.1698 164.134L40.779 138.888H40.7546ZM171.642 147.401C129.322 196.624 68.0736 225.675 1.99576 226.236H-0.00439453V252.555C73.8301 252.555 142.542 220.674 190.155 166.207L191.595 164.548L171.642 147.401ZM309.115 64.4924C287.553 168.402 214.547 254.628 116.394 293.557L113.418 294.728L122.882 319.267C229.768 278.117 309.676 185.452 334.166 73.2247L334.898 69.8342L309.14 64.4924H309.115ZM69.7323 307.973C48.0234 312.876 25.7048 315.462 3.09341 315.681H-0.00439453V342C24.5583 342 48.804 339.414 72.4398 334.316L75.5132 333.634L69.7323 307.973Z" fill="#072F53"/>
</svg>
