<svg width="52" height="58" viewBox="0 0 52 58" fill="none" xmlns="http://www.w3.org/2000/svg">
<g clip-path="url(#clip0_1_657)">
<path d="M51.1426 0L46.4828 52.1947L25.5404 58L4.65445 52.2035L0 0H51.1426Z" fill="#264DE4"/>
<path d="M42.4945 48.8709L46.4757 4.26849H25.5703V53.5623L42.4945 48.8709Z" fill="#2965F1"/>
<path d="M10.6694 23.63L11.244 30.0327H25.5704V23.63H10.6694Z" fill="#EBEBEB"/>
<path d="M25.5704 10.6712H25.5492H9.51685L10.0984 17.0739H25.5704V10.6712Z" fill="#EBEBEB"/>
<path d="M25.5704 46.9181V40.2581L25.5422 40.2651L18.4134 38.3388L17.9569 33.2332H14.4921H11.5295L12.4266 43.2858L25.5422 46.9269L25.5704 46.9181Z" fill="#EBEBEB"/>
<path d="M33.4325 30.0327L32.6905 38.3353L25.5493 40.2634V46.9234L38.6738 43.2859L38.7707 42.2037L40.2758 25.3483L40.4309 23.63L41.587 10.6712H25.5493V17.0739H34.571L33.9876 23.63H25.5493V30.0327H33.4325Z" fill="white"/>
</g>
<defs>
<clipPath id="clip0_1_657">
<rect width="51.1426" height="58" fill="white"/>
</clipPath>
</defs>
</svg>
