<svg width="310" height="271" viewBox="0 0 310 271" fill="none" xmlns="http://www.w3.org/2000/svg">
<g clip-path="url(#clip0_1_3707)">
<path d="M0.166626 155.296C0.166626 199.9 19.0663 240.092 49.2896 268.304C50.2669 269.209 51.2531 270.106 52.2483 270.994H257.052C258.047 270.106 259.033 269.209 260.01 268.304C290.234 240.092 309.133 199.9 309.133 155.296C309.133 69.9611 239.963 0.777084 154.645 0.777084C69.328 0.777084 0.166626 69.9611 0.166626 155.296Z" fill="white" fill-opacity="0.13"/>
<path d="M22.2132 270.994H295.837C297.577 270.994 297.442 268.304 295.721 268.304H22.0877C20.3573 268.304 20.4828 270.994 22.2132 270.994Z" fill="#FBC108"/>
<path d="M265.677 66.5624L192.642 82.3721L110.821 16.2101L23.854 111.57L56.0408 191.228L63.4375 139.405L224.022 109.687L266.492 156.112L265.677 66.5624Z" stroke="#F2DBB5" stroke-width="0.5" stroke-miterlimit="10"/>
<path d="M224.022 109.687L192.642 82.3721L82.6869 65.8719L63.4375 139.405L23.854 111.57" stroke="#F2DBB5" stroke-width="0.5" stroke-miterlimit="10"/>
<path d="M192.642 82.3721L195.35 31.0782L110.821 16.2101" stroke="#F2DBB5" stroke-width="0.5" stroke-miterlimit="10"/>
<path d="M82.6869 65.8719L224.022 109.687L265.677 66.5624" stroke="#F2DBB5" stroke-width="0.5" stroke-miterlimit="10"/>
<path d="M196.766 58.7159C208.922 58.7159 218.777 48.8594 218.777 36.7008C218.777 24.5421 208.922 14.6856 196.766 14.6856C184.61 14.6856 174.755 24.5421 174.755 36.7008C174.755 48.8594 184.61 58.7159 196.766 58.7159Z" fill="#FCA311"/>
<path d="M212.313 33.7415H204.288V34.6382H212.313V33.7415Z" fill="#072F53"/>
<path d="M199.806 33.7415H181.22V34.6382H199.806V33.7415Z" fill="#072F53"/>
<path d="M212.313 40.2608H206.835V41.1576H212.313V40.2608Z" fill="#072F53"/>
<path d="M195.296 40.2608H181.22V41.1576H195.296V40.2608Z" fill="#072F53"/>
<path d="M212.313 46.7802H200.729V47.6769H212.313V46.7802Z" fill="#072F53"/>
<path d="M199.42 46.7802H181.22V47.6769H199.42V46.7802Z" fill="#072F53"/>
<path d="M199.321 50.2416V47.5693C196.757 47.0851 194.91 45.0315 194.839 42.413C194.803 41.1576 195.475 39.6959 196.47 38.8619C197.358 38.1176 198.344 37.7051 199.321 37.6513V30.6477C197.43 28.9887 195.852 27.3387 195.87 25.2314C195.888 23.3751 197.206 21.2319 199.68 20.7028L200.218 20.5862V30.2262C200.442 30.4235 200.675 30.6208 200.908 30.8181C203.894 33.3559 207.274 36.2255 207.274 41.0769C207.274 44.7715 204.297 47.659 200.505 47.659C200.406 47.659 200.308 47.659 200.218 47.659V50.2237C200.218 51.0846 200.917 51.784 201.778 51.784C202.558 51.784 202.854 51.0935 202.863 51.0666L203.697 51.3984C203.679 51.4522 203.177 52.6808 201.778 52.6808C200.379 52.6808 199.321 51.5778 199.321 50.2237V50.2416ZM200.218 37.7051C200.442 37.741 200.666 37.8038 200.882 37.8845C202.119 38.3418 203.006 39.391 203.222 40.6375L202.334 40.7899C202.182 39.8573 201.5 39.0682 200.568 38.7274C200.451 38.6826 200.335 38.6467 200.209 38.6198V46.7802C200.308 46.7802 200.397 46.7802 200.496 46.7802C203.786 46.7802 206.369 44.2783 206.369 41.0948C206.369 36.6559 203.159 33.9298 200.326 31.5176C200.29 31.4817 200.254 31.4548 200.209 31.4189V37.7051H200.218ZM197.053 39.5524C196.264 40.216 195.717 41.4087 195.735 42.3951C195.789 44.5473 197.241 46.2063 199.321 46.6636V38.557C198.55 38.6108 197.761 38.9516 197.053 39.5524ZM196.766 25.2493C196.748 26.7827 197.833 28.092 199.321 29.455V21.743C197.475 22.3976 196.775 24.1373 196.766 25.2493Z" fill="#072F53"/>
<path d="M201.832 50.2416C201.832 49.4435 202.486 48.7889 203.284 48.7889C204.082 48.7889 204.737 49.4435 204.737 50.2416C204.737 51.0397 204.082 51.6944 203.284 51.6944C202.486 51.6944 201.832 51.0397 201.832 50.2416ZM202.728 50.2416C202.728 50.5465 202.98 50.7976 203.284 50.7976C203.589 50.7976 203.84 50.5465 203.84 50.2416C203.84 49.9367 203.589 49.6856 203.284 49.6856C202.98 49.6856 202.728 49.9367 202.728 50.2416Z" fill="#072F53"/>
<path d="M224.022 131.586C236.178 131.586 246.033 121.729 246.033 109.57C246.033 97.4118 236.178 87.5553 224.022 87.5553C211.866 87.5553 202.011 97.4118 202.011 109.57C202.011 121.729 211.866 131.586 224.022 131.586Z" fill="#FCA311"/>
<path d="M213.541 125.12H214.438V122.609C214.438 119.291 216.025 116.126 218.67 114.144L221.61 111.938L221.072 111.22L218.132 113.426C215.254 115.588 213.541 119.022 213.541 122.609V125.12Z" fill="#072F53"/>
<path d="M226.963 107.92L229.903 105.714C232.781 103.553 234.494 100.119 234.494 96.5317V94.0208H233.597V96.5317C233.597 99.8497 232.01 103.015 229.366 104.997L226.425 107.203L226.963 107.92Z" fill="#072F53"/>
<path d="M233.607 125.12H234.503V122.609C234.503 119.013 232.782 115.579 229.913 113.426L218.679 104.997C216.025 103.006 214.447 99.8407 214.447 96.5317V94.0208H213.55V96.5317C213.55 100.128 215.263 103.562 218.141 105.714L229.375 114.144C232.029 116.135 233.607 119.3 233.607 122.609V125.12Z" fill="#072F53"/>
<path d="M234.055 95.5811H218.006V96.4779H234.055V95.5811Z" fill="#072F53"/>
<path d="M233.051 99.5896H218.508V100.486H233.051V99.5896Z" fill="#072F53"/>
<path d="M231.042 103.607H221.512V104.504H231.042V103.607Z" fill="#072F53"/>
<path d="M230.038 122.663H213.989V123.56H230.038V122.663Z" fill="#072F53"/>
<path d="M229.536 118.654H214.994V119.551H229.536V118.654Z" fill="#072F53"/>
<path d="M226.532 114.637H217.002V115.534H226.532V114.637Z" fill="#072F53"/>
<path d="M82.6868 84.327C94.843 84.327 104.698 74.4705 104.698 62.3119C104.698 50.1532 94.843 40.2967 82.6868 40.2967C70.5306 40.2967 60.676 50.1532 60.676 62.3119C60.676 74.4705 70.5306 84.327 82.6868 84.327Z" fill="#FCA311"/>
<path d="M69.31 73.7005H74.6356V72.8038H69.31C69.05 72.8038 68.8348 72.5886 68.8348 72.3285V50.1878C68.8348 49.9278 69.05 49.7126 69.31 49.7126H96.0636C96.3236 49.7126 96.5388 49.9278 96.5388 50.1878V72.3285C96.5388 72.5886 96.3236 72.8038 96.0636 72.8038H90.738V73.7005H96.0636C96.8167 73.7005 97.4354 73.0818 97.4354 72.3285V50.1878C97.4354 49.4346 96.8167 48.8158 96.0636 48.8158H69.31C68.5569 48.8158 67.9382 49.4346 67.9382 50.1878V72.3285C67.9382 73.0818 68.5569 73.7005 69.31 73.7005Z" fill="#072F53"/>
<path d="M73.0128 70.9296H73.9183V70.0328H73.8735C73.6852 68.876 72.7618 67.9524 71.6052 67.7641V54.7523C72.7618 54.564 73.6852 53.6403 73.8735 52.4835H91.5001C91.6883 53.6403 92.6118 54.564 93.7684 54.7523V67.7641C92.6118 67.9524 91.6883 68.876 91.5001 70.0328H87.9048V70.9296H92.3608V70.4812C92.3608 69.4589 93.1946 68.625 94.2167 68.625H94.6649V53.8914H94.2167C93.1946 53.8914 92.3608 53.0574 92.3608 52.0351V51.5868H73.0128V52.0351C73.0128 53.0574 72.179 53.8914 71.1569 53.8914H70.7086V68.625H71.1569C72.179 68.625 73.0128 69.4589 73.0128 70.4812V70.9296Z" fill="#072F53"/>
<path d="M85.9055 55.7387H79.4502V56.6354H85.9055V55.7387Z" fill="#072F53"/>
<path d="M88.6759 58.967H76.6887V59.8637H88.6759V58.967Z" fill="#072F53"/>
<path d="M81.064 74.1758L81.0012 74.113C80.7412 73.853 80.3826 73.7005 80.015 73.7005H79.9253C78.6612 73.7005 77.6301 72.6693 77.6301 71.4049V71.3152C77.6301 70.9386 77.4866 70.5888 77.2266 70.3288L77.1639 70.266C76.2673 69.3692 76.2673 67.9165 77.1639 67.0198L77.2266 66.957C77.4866 66.6969 77.6391 66.3382 77.6391 65.9706V65.8809C77.6391 64.6165 78.6701 63.5852 79.9343 63.5852H80.0239C80.4005 63.5852 80.7502 63.4417 81.0102 63.1727L81.0729 63.11C81.9695 62.2132 83.4219 62.2132 84.3185 63.11L84.3813 63.1727C84.6413 63.4328 84.9909 63.5852 85.3675 63.5852H85.4571C86.7213 63.5852 87.7524 64.6165 87.7524 65.8809V65.9706C87.7524 66.3472 87.8958 66.6969 88.1648 66.957L88.2275 67.0198C89.1241 67.9165 89.1241 69.3692 88.2275 70.266L88.1648 70.3288C87.9048 70.5888 87.7524 70.9475 87.7524 71.3152V71.4049C87.7524 72.6693 86.7213 73.7005 85.4571 73.7005H85.3675C84.9909 73.7005 84.6413 73.844 84.3813 74.113L84.3185 74.1758C83.8702 74.6242 83.2875 74.8484 82.6957 74.8484C82.104 74.8484 81.5212 74.6242 81.0729 74.1758H81.064ZM85.3585 64.473C84.7489 64.473 84.1661 64.2309 83.7357 63.8004L83.673 63.7377C83.1261 63.1907 82.2385 63.1907 81.7005 63.7377L81.6378 63.8004C81.2074 64.2309 80.6336 64.473 80.015 64.473H79.9253C79.1543 64.473 78.5267 65.1007 78.5267 65.8719V65.9616C78.5267 66.5714 78.2846 67.1543 77.8542 67.5847L77.7915 67.6475C77.2446 68.1945 77.2446 69.0823 77.7915 69.6203L77.8542 69.6831C78.2846 70.1135 78.5267 70.6964 78.5267 71.3062V71.3959C78.5267 72.1671 79.1543 72.7948 79.9253 72.7948H80.015C80.6246 72.7948 81.2074 73.0369 81.6378 73.4674L81.7005 73.5301C82.2474 74.0772 83.1261 74.0772 83.673 73.5301L83.7357 73.4674C84.1661 73.0369 84.7399 72.7948 85.3585 72.7948H85.4482C86.2192 72.7948 86.8468 72.1671 86.8468 71.3959V71.3062C86.8468 70.6964 87.0889 70.1135 87.5193 69.6831L87.582 69.6203C88.1289 69.0733 88.1289 68.1855 87.582 67.6475L87.5193 67.5847C87.0889 67.1543 86.8468 66.5714 86.8468 65.9616V65.8719C86.8468 65.1007 86.2192 64.473 85.4482 64.473H85.3585Z" fill="#072F53"/>
<path d="M78.4281 78.7582L81.6557 74.4448L80.9385 73.9068L78.6343 76.9737L77.4598 74.2296L74.7432 73.844L77.0115 70.9296H78.3115L77.1729 69.2616L76.5722 70.0328H73.4611V70.9296H75.8729L73.0935 74.5076L76.8322 75.0457L78.4281 78.7582Z" fill="#072F53"/>
<path d="M86.9365 78.7582L88.5324 75.0456L92.2711 74.5076L88.5683 69.7459L87.86 70.3019L90.6124 73.844L87.9048 74.2296L86.7303 76.9737L84.4261 73.9068L83.7089 74.4448L86.9365 78.7582Z" fill="#072F53"/>
<path d="M79.4681 68.6429C79.4681 66.8673 80.9116 65.4236 82.6868 65.4236C84.462 65.4236 85.9055 66.8673 85.9055 68.6429C85.9055 70.4184 84.462 71.8622 82.6868 71.8622C80.9116 71.8622 79.4681 70.4184 79.4681 68.6429ZM80.3647 68.6429C80.3647 69.9252 81.4047 70.9654 82.6868 70.9654C83.9689 70.9654 85.0089 69.9252 85.0089 68.6429C85.0089 67.3605 83.9689 66.3203 82.6868 66.3203C81.4047 66.3203 80.3647 67.3605 80.3647 68.6429Z" fill="#072F53"/>
<path d="M64.4326 160.927C76.5889 160.927 86.4434 151.071 86.4434 138.912C86.4434 126.753 76.5889 116.897 64.4326 116.897C52.2764 116.897 42.4219 126.753 42.4219 138.912C42.4219 151.071 52.2764 160.927 64.4326 160.927Z" fill="#FCA311"/>
<path d="M174.307 36.7008C174.307 24.3167 184.385 14.2373 196.766 14.2373C209.148 14.2373 219.225 24.3167 219.225 36.7008C219.225 49.0848 209.148 59.1643 196.766 59.1643C184.385 59.1643 174.307 49.0848 174.307 36.7008ZM175.204 36.7008C175.204 48.5916 184.878 58.2675 196.766 58.2675C208.655 58.2675 218.329 48.5916 218.329 36.7008C218.329 24.8099 208.655 15.134 196.766 15.134C184.878 15.134 175.204 24.8099 175.204 36.7008Z" fill="#DB6E00"/>
<path d="M201.563 109.57C201.563 97.1863 211.64 87.1069 224.022 87.1069C236.404 87.1069 246.481 97.1863 246.481 109.57C246.481 121.954 236.404 132.034 224.022 132.034C211.64 132.034 201.563 121.954 201.563 109.57ZM202.46 109.57C202.46 121.461 212.134 131.137 224.022 131.137C235.911 131.137 245.585 121.461 245.585 109.57C245.585 97.6796 235.911 88.0036 224.022 88.0036C212.134 88.0036 202.46 97.6796 202.46 109.57Z" fill="#DB6E00"/>
<path d="M60.2278 62.3119C60.2278 49.9278 70.3052 39.8483 82.6868 39.8483C95.0685 39.8483 105.146 49.9278 105.146 62.3119C105.146 74.6959 95.0685 84.7754 82.6868 84.7754C70.3052 84.7754 60.2278 74.6959 60.2278 62.3119ZM61.1244 62.3119C61.1244 74.2027 70.7983 83.8786 82.6868 83.8786C94.5753 83.8786 104.249 74.2027 104.249 62.3119C104.249 50.421 94.5753 40.7451 82.6868 40.7451C70.7983 40.7451 61.1244 50.421 61.1244 62.3119Z" fill="#DB6E00"/>
<path d="M41.9736 138.912C41.9736 126.528 52.0511 116.448 64.4327 116.448C76.8143 116.448 86.8917 126.528 86.8917 138.912C86.8917 151.296 76.8143 161.375 64.4327 161.375C52.0511 161.375 41.9736 151.296 41.9736 138.912ZM42.8702 138.912C42.8702 150.803 52.5442 160.479 64.4327 160.479C76.3212 160.479 85.9952 150.803 85.9952 138.912C85.9952 127.021 76.3212 117.345 64.4327 117.345C52.5442 117.345 42.8702 127.021 42.8702 138.912Z" fill="#DB6E00"/>
<path d="M51.1455 154.219C51.1455 152.614 52.4545 151.305 54.0594 151.305H74.788C76.3929 151.305 77.7019 152.614 77.7019 154.219V154.668H51.1455V154.219ZM74.788 152.202H54.0594C53.1 152.202 52.2931 152.874 52.0869 153.771H76.7515C76.5453 152.874 75.7384 152.202 74.7791 152.202H74.788Z" fill="#072F53"/>
<path d="M62.9891 151.825H63.8857V148.292C63.8857 146.633 65.2306 145.288 66.8892 145.288C68.5479 145.288 69.8927 146.633 69.8927 148.292V151.825H70.7893V148.292C70.7893 146.14 69.041 144.391 66.8892 144.391C64.7374 144.391 62.9891 146.14 62.9891 148.292V151.825Z" fill="#072F53"/>
<path d="M59.5374 133.487C59.5374 131.334 61.2857 129.586 63.4374 129.586C65.5892 129.586 67.3375 131.334 67.3375 133.487C67.3375 135.639 65.5892 137.387 63.4374 137.387C61.2857 137.387 59.5374 135.639 59.5374 133.487ZM60.4339 133.487C60.4339 135.146 61.7788 136.491 63.4374 136.491C65.0961 136.491 66.4409 135.146 66.4409 133.487C66.4409 131.828 65.0961 130.483 63.4374 130.483C61.7788 130.483 60.4339 131.828 60.4339 133.487Z" fill="#072F53"/>
<path d="M62.0029 133.487C62.0029 132.698 62.6485 132.052 63.4374 132.052C64.2264 132.052 64.8719 132.698 64.8719 133.487C64.8719 134.276 64.2264 134.921 63.4374 134.921C62.6485 134.921 62.0029 134.276 62.0029 133.487ZM62.8995 133.487C62.8995 133.783 63.1416 134.025 63.4374 134.025C63.7333 134.025 63.9754 133.783 63.9754 133.487C63.9754 133.191 63.7333 132.949 63.4374 132.949C63.1416 132.949 62.8995 133.191 62.8995 133.487Z" fill="#072F53"/>
<path d="M70.4486 149.494C74.6535 148.525 77.7018 144.705 77.7018 140.392C77.7018 135.442 73.8287 131.343 68.8886 131.074H66.2795V131.971H68.8617C73.3086 132.222 76.8053 135.917 76.8053 140.392C76.8053 144.283 74.0438 147.745 70.2424 148.615L70.4396 149.485L70.4486 149.494Z" fill="#072F53"/>
<path d="M68.9155 145.754C71.6321 145.485 73.7659 143.127 73.7659 140.401C73.7659 137.432 71.3542 135.02 68.3865 135.02H66.4141V135.917H68.3865C70.861 135.917 72.8694 137.935 72.8694 140.401C72.8694 142.678 71.0942 144.642 68.8348 144.866L68.9245 145.754H68.9155Z" fill="#072F53"/>
<path d="M53.62 151.753H54.5166V149.287C54.5166 148.991 54.7586 148.749 55.0545 148.749H63.4464V147.853H55.0545C54.2655 147.853 53.62 148.498 53.62 149.287V151.753Z" fill="#072F53"/>
<path d="M65.4637 148.292C65.4637 147.503 66.1093 146.857 66.8983 146.857C67.6872 146.857 68.3328 147.503 68.3328 148.292C68.3328 149.081 67.6872 149.727 66.8983 149.727C66.1093 149.727 65.4637 149.081 65.4637 148.292ZM66.3603 148.292C66.3603 148.588 66.6024 148.83 66.8983 148.83C67.1941 148.83 67.4362 148.588 67.4362 148.292C67.4362 147.996 67.1941 147.754 66.8983 147.754C66.6024 147.754 66.3603 147.996 66.3603 148.292Z" fill="#072F53"/>
<path d="M61.465 140.347H62.9443C63.4643 140.347 63.8857 139.925 63.8857 139.405V136.939H62.9891V139.405L61.465 139.45V140.347Z" fill="#072F53"/>
<path d="M54.5614 140.347H61.4739V139.45H54.5614L54.5166 127.559C54.5166 127.263 54.7586 127.021 55.0545 127.021H62.4602C62.756 127.021 62.9981 127.263 62.9981 127.559V130.025H63.8947V127.559C63.8947 126.77 63.2492 126.124 62.4602 126.124H55.0545C54.2655 126.124 53.62 126.77 53.62 127.559V139.405C53.62 139.925 54.0414 140.347 54.5614 140.347Z" fill="#072F53"/>
<path d="M56.5786 126.573H57.4752V124.062H60.0304V126.573H60.927V123.165H56.5786V126.573Z" fill="#072F53"/>
<path d="M61.465 123.165H56.0408V124.062H61.465V123.165Z" fill="#072F53"/>
<path d="M55.0994 142.822H62.4064V139.898H61.5098V141.925H55.9959V139.898H55.0994V142.822Z" fill="#072F53"/>
<path d="M56.5786 146.274H60.927V142.373H60.0304V145.377H57.4752V142.373H56.5786V146.274Z" fill="#072F53"/>
<path d="M32.2414 115.018C34.1469 110.382 31.9346 105.079 27.3 103.173C22.6654 101.268 17.3636 103.48 15.458 108.116C13.5525 112.751 15.7649 118.054 20.3995 119.96C25.0341 121.866 30.3359 119.653 32.2414 115.018Z" fill="#F2DBB5"/>
<path d="M261.956 156.112C261.956 158.613 263.991 160.649 266.492 160.649C268.994 160.649 271.029 158.613 271.029 156.112C271.029 153.61 268.994 151.574 266.492 151.574C263.991 151.574 261.956 153.61 261.956 156.112Z" fill="#F2DBB5"/>
<path d="M192.642 89.8151C196.752 89.8151 200.084 86.4827 200.084 82.3721C200.084 78.2614 196.752 74.9291 192.642 74.9291C188.532 74.9291 185.201 78.2614 185.201 82.3721C185.201 86.4827 188.532 89.8151 192.642 89.8151Z" fill="#F2DBB5"/>
<path d="M112.826 23.3755C116.783 22.2666 119.093 18.1589 117.984 14.2006C116.876 10.2424 112.769 7.93251 108.811 9.0414C104.854 10.1503 102.544 14.258 103.653 18.2163C104.762 22.1746 108.869 24.4844 112.826 23.3755Z" fill="#F2DBB5"/>
<path d="M52.3201 191.228C52.3201 193.282 53.9877 194.95 56.0408 194.95C58.094 194.95 59.7616 193.282 59.7616 191.228C59.7616 189.175 58.094 187.507 56.0408 187.507C53.9877 187.507 52.3201 189.175 52.3201 191.228Z" fill="#F2DBB5"/>
<path d="M261.956 66.5624C261.956 68.616 263.623 70.2839 265.677 70.2839C267.73 70.2839 269.397 68.616 269.397 66.5624C269.397 64.5089 267.73 62.8409 265.677 62.8409C263.623 62.8409 261.956 64.5089 261.956 66.5624Z" fill="#F2DBB5"/>
<path d="M165.942 241.24V236.989H235.767V241.24H232.01H165.942Z" fill="#225EC9"/>
<path d="M232.01 264.564H235.767V268.815H165.942V264.564H232.01Z" fill="#225EC9"/>
<path d="M165.942 264.564H88.0931V268.815H165.942V264.564Z" fill="#001FAF"/>
<path d="M165.942 236.989H88.0931V241.24H165.942V236.989Z" fill="#001FAF"/>
<path d="M235.767 241.24H232.01V264.573H235.767V241.24Z" fill="#225EC9"/>
<path d="M232.019 241.24H168.515V264.573H232.019V241.24Z" fill="#FFE8D6"/>
<path d="M168.515 241.24H92.7911V264.573H168.515V241.24Z" fill="#EBD5C5"/>
<path d="M148.45 209.405V205.155H218.284V209.405H214.527H148.45Z" fill="#072F53"/>
<path d="M214.527 232.739H218.284V236.989H148.45V232.739H214.527Z" fill="#072F53"/>
<path d="M148.45 232.739H70.6011V236.989H148.45V232.739Z" fill="#27293B"/>
<path d="M148.45 205.155H70.6011V209.405H148.45V205.155Z" fill="#27293B"/>
<path d="M218.284 209.405H214.527V232.739H218.284V209.405Z" fill="#072F53"/>
<path d="M214.527 209.405H151.023V232.739H214.527V209.405Z" fill="#FFE8D6"/>
<path d="M151.023 209.405H75.2991V232.739H151.023V209.405Z" fill="#EBD5C5"/>
<path d="M158.357 177.849V173.598H228.191V177.849H224.434H158.357Z" fill="#FCA311"/>
<path d="M224.434 201.182H228.191V205.433H158.357V201.182H224.434Z" fill="#FCA311"/>
<path d="M158.366 201.182H80.5171V205.433H158.366V201.182Z" fill="#DB6E00"/>
<path d="M158.366 173.598H80.5171V177.849H158.366V173.598Z" fill="#DB6E00"/>
<path d="M228.191 177.849H224.434V201.182H228.191V177.849Z" fill="#FCA311"/>
<path d="M224.434 177.849H160.93V201.182H224.434V177.849Z" fill="#FFE8D6"/>
<path d="M160.93 177.849H85.2062V201.182H160.93V177.849Z" fill="#EBD5C5"/>
<path d="M224.022 248.207V257.309L220.633 254.879L217.253 257.309V248.207H224.022Z" fill="#225EC9"/>
<path d="M219.79 190.843V199.945L216.401 197.514L213.012 199.945V190.843H219.79Z" fill="#FCA311"/>
<path d="M180.449 247.643H227.25C227.743 247.643 227.779 248.414 227.285 248.414H180.485C179.991 248.414 179.956 247.643 180.449 247.643Z" fill="#EBD5C5"/>
<path d="M174.029 190.009H221.852C222.345 190.009 222.381 190.78 221.888 190.78H174.065C173.572 190.78 173.536 190.009 174.029 190.009Z" fill="#EBD5C5"/>
<path d="M137.064 87.3759C137.064 81.1076 141.161 76.0321 146.227 76.0321C151.283 76.0321 155.39 81.1076 155.39 87.3759V106.934H137.763L137.064 87.3759Z" fill="#DB6E00"/>
<path d="M155.39 106.934V136.446L138.749 134.41L137.763 106.934H155.39Z" fill="#EE9F87"/>
<path d="M179.454 141.252V134.805L155.076 127.783C150.889 127.783 138.749 130.196 138.749 134.034C138.92 146.149 179.454 141.252 179.454 141.252Z" fill="#EE9F87"/>
<path d="M186.016 137.316C187.388 136.625 189.074 136.276 190.607 136.302C192.077 136.329 193.512 136.733 194.677 137.656C195.664 138.437 196.354 139.638 196.587 140.867C196.704 141.486 196.793 142.113 196.757 142.741C196.739 143.1 196.713 143.512 196.623 143.871C196.497 144.373 196.21 144.723 195.825 145.055C195.323 145.476 194.48 145.189 194.157 144.696C193.799 144.14 193.835 143.566 193.799 142.938C193.79 142.714 193.781 142.481 193.754 142.257C193.745 142.131 193.718 142.015 193.709 141.889C193.745 142.257 193.709 141.889 193.691 141.808C193.637 141.575 193.566 141.342 193.485 141.118C193.449 141.028 193.413 140.948 193.386 140.858C193.368 140.831 193.359 140.804 193.341 140.777C193.252 140.625 193.153 140.481 193.055 140.338C193.099 140.41 192.956 140.221 192.911 140.176C192.821 140.087 192.723 140.006 192.624 139.925C192.606 139.907 192.588 139.898 192.579 139.889C192.561 139.889 192.544 139.871 192.508 139.854C192.409 139.809 192.319 139.746 192.221 139.701C192.194 139.692 192.041 139.629 191.979 139.593C191.916 139.576 191.817 139.54 191.799 139.54C191.539 139.468 191.279 139.423 191.019 139.378C190.992 139.378 190.975 139.378 190.957 139.369C190.939 139.369 190.921 139.369 190.894 139.369C190.759 139.369 190.625 139.369 190.499 139.369C190.203 139.369 189.908 139.396 189.621 139.432C189.486 139.45 189.352 139.468 189.226 139.486C189.163 139.495 189.128 139.504 189.11 139.504C189.101 139.504 189.065 139.513 188.993 139.531C188.294 139.692 187.585 139.871 186.868 139.916C186.277 139.952 185.631 139.531 185.47 138.948C185.317 138.392 185.479 137.621 186.043 137.334L186.016 137.316Z" fill="#EE9F87"/>
<path d="M182.35 137.755C183.721 137.065 185.407 136.715 186.94 136.742C188.41 136.769 189.845 137.172 191.01 138.096C191.997 138.876 192.687 140.078 192.92 141.306C193.037 141.925 193.126 142.553 193.091 143.18C193.073 143.539 193.046 143.952 192.956 144.31C192.831 144.813 192.544 145.162 192.158 145.494C191.656 145.916 190.813 145.629 190.49 145.135C190.132 144.579 190.168 144.005 190.132 143.378C190.123 143.154 190.114 142.92 190.087 142.696C190.078 142.571 190.051 142.454 190.042 142.329C190.078 142.696 190.042 142.329 190.024 142.248C189.97 142.015 189.899 141.782 189.818 141.557C189.782 141.468 189.746 141.387 189.719 141.297C189.701 141.27 189.693 141.243 189.675 141.217C189.585 141.064 189.486 140.921 189.388 140.777C189.433 140.849 189.289 140.661 189.244 140.616C189.155 140.526 189.056 140.445 188.957 140.365C188.939 140.347 188.921 140.338 188.913 140.329C188.895 140.329 188.877 140.311 188.841 140.293C188.742 140.248 188.653 140.185 188.554 140.14C188.527 140.132 188.375 140.069 188.312 140.033C188.249 140.015 188.15 139.979 188.132 139.97C187.872 139.898 187.612 139.854 187.352 139.809C187.326 139.809 187.308 139.809 187.29 139.8C187.272 139.8 187.254 139.8 187.227 139.8C187.092 139.8 186.958 139.8 186.832 139.8C186.537 139.8 186.241 139.827 185.954 139.862C185.819 139.88 185.685 139.898 185.559 139.916C185.497 139.925 185.461 139.934 185.443 139.934C185.434 139.934 185.398 139.943 185.326 139.961C184.627 140.123 183.919 140.302 183.201 140.347C182.61 140.383 181.964 139.961 181.803 139.378C181.65 138.822 181.812 138.051 182.377 137.764L182.35 137.755Z" fill="#EE9F87"/>
<path d="M178.871 138.195C180.243 137.504 181.928 137.154 183.461 137.181C184.932 137.208 186.366 137.612 187.532 138.535C188.518 139.315 189.208 140.517 189.441 141.746C189.558 142.364 189.648 142.992 189.612 143.62C189.594 143.979 189.567 144.391 189.477 144.75C189.352 145.252 189.065 145.602 188.679 145.933C188.177 146.355 187.334 146.068 187.012 145.575C186.653 145.019 186.689 144.445 186.653 143.817C186.644 143.593 186.635 143.36 186.608 143.136C186.599 143.01 186.572 142.893 186.563 142.768C186.599 143.136 186.563 142.768 186.545 142.687C186.492 142.454 186.42 142.221 186.339 141.997C186.303 141.907 186.268 141.826 186.241 141.737C186.223 141.71 186.214 141.683 186.196 141.656C186.106 141.504 186.008 141.36 185.909 141.217C185.954 141.288 185.81 141.1 185.765 141.055C185.676 140.965 185.577 140.885 185.479 140.804C185.461 140.786 185.443 140.777 185.434 140.768C185.416 140.768 185.398 140.75 185.362 140.732C185.263 140.688 185.174 140.625 185.075 140.58C185.048 140.571 184.896 140.508 184.833 140.472C184.77 140.454 184.672 140.418 184.654 140.41C184.394 140.338 184.134 140.293 183.874 140.248C183.847 140.248 183.829 140.248 183.811 140.239C183.793 140.239 183.775 140.239 183.748 140.239C183.614 140.239 183.479 140.239 183.354 140.239C183.058 140.239 182.762 140.266 182.475 140.302C182.341 140.32 182.206 140.338 182.081 140.356C182.018 140.365 181.982 140.374 181.964 140.374C181.955 140.374 181.919 140.383 181.847 140.401C181.148 140.562 180.44 140.741 179.723 140.786C179.131 140.822 178.485 140.401 178.324 139.818C178.172 139.262 178.333 138.49 178.898 138.204L178.871 138.195Z" fill="#EE9F87"/>
<path d="M191.082 140.105C189.872 141.073 186.931 142.167 185.479 142.678C182.574 143.692 179.05 142.454 177.418 139.845L179.463 134.805L194.346 135.226L191.082 140.114V140.105Z" fill="#EE9F87"/>
<path d="M189.755 136.231C191.127 135.54 192.813 135.19 194.346 135.217C195.816 135.253 197.251 135.648 198.416 136.571C199.402 137.352 200.093 138.553 200.326 139.782C200.442 140.401 200.532 141.028 200.496 141.656C200.478 142.015 200.451 142.427 200.362 142.786C200.236 143.288 199.949 143.638 199.564 143.97C199.062 144.391 198.219 144.104 197.896 143.611C197.537 143.055 197.573 142.481 197.537 141.853C197.529 141.629 197.52 141.396 197.493 141.172C197.484 141.046 197.457 140.93 197.448 140.804C197.484 141.172 197.448 140.804 197.43 140.723C197.376 140.49 197.304 140.257 197.224 140.033C197.188 139.943 197.152 139.863 197.125 139.773C197.107 139.746 197.098 139.719 197.08 139.692C196.991 139.54 196.892 139.396 196.793 139.253C196.838 139.324 196.695 139.136 196.65 139.091C196.56 139.002 196.462 138.921 196.363 138.84C196.345 138.822 196.327 138.813 196.318 138.804C196.3 138.804 196.282 138.786 196.246 138.768C196.148 138.724 196.058 138.661 195.96 138.616C195.933 138.607 195.78 138.544 195.717 138.508C195.655 138.49 195.556 138.455 195.538 138.446C195.278 138.374 195.018 138.329 194.758 138.284C194.731 138.284 194.713 138.284 194.695 138.275C194.677 138.275 194.659 138.275 194.633 138.275C194.498 138.275 194.364 138.275 194.238 138.275C193.942 138.275 193.646 138.302 193.359 138.338C193.225 138.356 193.09 138.374 192.965 138.392C192.902 138.401 192.866 138.41 192.848 138.41C192.839 138.41 192.804 138.419 192.732 138.437C192.033 138.598 191.324 138.777 190.607 138.822C190.015 138.858 189.37 138.437 189.208 137.854C189.056 137.298 189.217 136.527 189.782 136.24L189.755 136.231Z" fill="#EE9F87"/>
<path d="M148.154 133.496C149.41 130.743 151.893 128.617 154.798 127.792C155.363 127.631 155.641 128.492 155.076 128.653C152.377 129.415 150.118 131.361 148.961 133.917C148.719 134.446 147.912 134.025 148.154 133.496Z" fill="#EE815E"/>
<path d="M206.656 222.731L206.422 226.022H193.844L193.593 222.731H206.656Z" fill="#FFAB91"/>
<path d="M127.22 139.136H151.068C151.194 142.383 151.857 147.978 151.857 147.978C157.479 148.902 163.199 149.297 168.865 149.799C174.146 150.265 197.762 149.449 202.711 150.435C206.799 151.243 208.96 151.476 210.062 156.506C211.703 164.012 208.207 222.731 208.207 222.731H192.024L188.903 175.266C180.789 176.889 172.353 176.513 164.033 175.948C154.305 175.293 136.84 173.67 132.698 164.846C130.42 159.986 126.144 142.392 127.22 139.136Z" fill="#072F53"/>
<path d="M127.22 139.136H151.069C151.194 142.382 151.858 147.978 151.858 147.978C157.479 148.902 163.199 149.296 168.865 149.798C173.671 150.22 178.468 150.623 183.273 151.036C191.038 154.273 197.197 160.138 197.798 169.706C198.416 181.498 197.045 194.788 190.876 205.164L188.913 175.257C180.799 176.88 172.362 176.504 164.042 175.939C154.314 175.284 136.849 173.661 132.707 164.837C130.43 159.977 126.153 142.382 127.229 139.127L127.22 139.136Z" fill="#27293B"/>
<path d="M206.422 226.022L219.064 230.784C221.449 231.68 223.027 233.958 223.027 236.505C223.027 236.855 222.749 237.133 222.399 237.133H195.126C193.395 237.133 192.095 235.563 192.409 233.868L193.853 226.031H206.44L206.422 226.022Z" fill="white"/>
<path d="M194.776 218.678C198.461 219.314 202.217 219.35 205.92 218.812C206.467 218.731 206.503 219.592 205.956 219.673C202.182 220.229 198.344 220.166 194.588 219.52C194.041 219.422 194.229 218.579 194.785 218.678H194.776Z" fill="#27293B"/>
<path d="M168.991 222.731L167.215 226.022H155.408L155.937 222.731H168.991Z" fill="#FFAB91"/>
<path d="M166.005 164.631C166.005 158.12 171.286 152.838 177.795 152.838C184.304 152.838 192.355 158.874 189.28 168.998L170.56 222.731H154.377L166.014 164.631H166.005Z" fill="#072F53"/>
<path d="M111.198 139.136H135.818C135.943 142.382 135.468 146.687 134.294 147.978C143.771 149.538 170.282 151.448 179.759 153.009C184.439 159.125 174.89 167.751 170.802 174.271C161.46 177.033 143.842 176.611 134.114 175.948C124.387 175.284 114.641 173.67 110.508 164.846C108.231 159.985 107.935 154.39 108.715 149.081C109.217 145.691 110.14 142.391 111.207 139.136H111.198Z" fill="#072F53"/>
<path d="M109.674 162.801C108.167 158.452 108.033 153.654 108.714 149.081C109.216 145.691 110.14 142.391 111.207 139.136H135.827C135.952 142.382 135.477 146.687 134.302 147.978C138.812 148.722 147.186 149.538 155.739 150.363C142.506 160.631 125.435 166.236 109.683 162.801H109.674Z" fill="#27293B"/>
<path d="M167.215 226.022L179.857 230.784C182.242 231.68 183.82 233.958 183.82 236.505C183.82 236.855 183.542 237.133 183.192 237.133H154.457C152.754 237.133 151.552 235.474 152.081 233.851L155.408 226.022H167.215Z" fill="white"/>
<path d="M157.12 218.678C160.805 219.314 164.562 219.35 168.264 218.812C168.811 218.731 168.847 219.592 168.3 219.673C164.526 220.229 160.688 220.166 156.932 219.52C156.385 219.422 156.573 218.579 157.129 218.678H157.12Z" fill="#27293B"/>
<path d="M112.381 74.678C123.292 70.3467 135.522 70.3288 146.442 74.6152C151.785 76.7136 155.04 82.4079 154.394 88.3713C152.279 107.938 152.906 127.344 155.659 147.01C141.036 157.672 123.14 160.703 106.58 154.838C102.026 134.348 100.573 109.983 102.519 88.2458C103.066 82.112 106.894 76.8571 112.372 74.678H112.381Z" fill="#FCA311"/>
<path d="M123.651 158.237C134.885 158.237 146.083 154.542 155.928 147.377L156.143 147.216L156.107 146.947C153.22 126.349 152.808 107.203 154.843 88.4251C154.87 88.183 154.69 87.9588 154.448 87.9319C154.206 87.914 153.982 88.0843 153.955 88.3265C151.92 107.095 152.323 126.232 155.183 146.803C140.632 157.313 123.086 160.111 106.966 154.497C102.483 134.177 101.022 110.055 102.967 88.2816C102.985 88.0395 102.806 87.8153 102.564 87.7974C102.322 87.7705 102.098 87.9588 102.08 88.2009C100.116 110.153 101.596 134.473 106.15 154.928L106.204 155.17L106.437 155.251C112.067 157.241 117.868 158.228 123.66 158.228L123.651 158.237Z" fill="#DB6E00"/>
<path d="M103.577 90.4876C103.577 84.2194 107.674 79.1438 112.74 79.1438C117.796 79.1438 121.903 84.2194 121.903 90.4876V110.046H104.276L103.577 90.4876Z" fill="#FCA311"/>
<path d="M121.903 110.046V139.558L105.262 137.522L104.276 110.046H121.903Z" fill="#FFAB91"/>
<path d="M145.967 144.364V137.917L121.589 130.895C117.402 130.895 105.262 133.307 105.262 137.145C105.433 149.26 145.967 144.364 145.967 144.364Z" fill="#FFAB91"/>
<path d="M152.53 140.427C153.901 139.737 155.587 139.387 157.12 139.414C158.59 139.441 160.025 139.845 161.191 140.768C162.177 141.548 162.867 142.75 163.1 143.979C163.217 144.597 163.306 145.225 163.271 145.853C163.253 146.211 163.226 146.624 163.136 146.983C163.011 147.485 162.724 147.835 162.338 148.166C161.836 148.588 160.993 148.301 160.671 147.808C160.312 147.252 160.348 146.678 160.312 146.05C160.303 145.826 160.294 145.593 160.267 145.368C160.258 145.243 160.231 145.126 160.222 145.001C160.258 145.368 160.222 145.001 160.204 144.92C160.151 144.687 160.079 144.454 159.998 144.23C159.962 144.14 159.926 144.059 159.899 143.97C159.882 143.943 159.873 143.916 159.855 143.889C159.765 143.736 159.666 143.593 159.568 143.449C159.613 143.521 159.469 143.333 159.424 143.288C159.335 143.198 159.236 143.118 159.137 143.037C159.119 143.019 159.102 143.01 159.093 143.001C159.075 143.001 159.057 142.983 159.021 142.965C158.922 142.92 158.833 142.858 158.734 142.813C158.707 142.804 158.555 142.741 158.492 142.705C158.429 142.687 158.33 142.651 158.313 142.651C158.053 142.58 157.793 142.535 157.533 142.49C157.506 142.49 157.488 142.49 157.47 142.481C157.452 142.481 157.434 142.481 157.407 142.481C157.273 142.481 157.138 142.481 157.013 142.481C156.717 142.481 156.421 142.508 156.134 142.544C155.999 142.562 155.865 142.58 155.739 142.598C155.677 142.607 155.641 142.615 155.623 142.615C155.614 142.615 155.578 142.624 155.506 142.642C154.807 142.804 154.099 142.983 153.381 143.028C152.79 143.064 152.144 142.642 151.983 142.06C151.83 141.504 151.992 140.732 152.557 140.445L152.53 140.427Z" fill="#FFAB91"/>
<path d="M148.863 140.867C150.234 140.176 151.92 139.827 153.453 139.854C154.923 139.88 156.358 140.284 157.524 141.208C158.51 141.988 159.2 143.189 159.433 144.418C159.55 145.037 159.639 145.664 159.604 146.292C159.586 146.651 159.559 147.063 159.469 147.422C159.344 147.924 159.057 148.274 158.671 148.606C158.169 149.027 157.326 148.74 157.004 148.247C156.645 147.691 156.681 147.117 156.645 146.489C156.636 146.265 156.627 146.032 156.6 145.808C156.591 145.682 156.564 145.566 156.555 145.44C156.591 145.808 156.555 145.44 156.537 145.36C156.484 145.126 156.412 144.893 156.331 144.669C156.295 144.579 156.259 144.499 156.232 144.409C156.215 144.382 156.206 144.355 156.188 144.328C156.098 144.176 155.999 144.032 155.901 143.889C155.946 143.961 155.802 143.772 155.757 143.727C155.668 143.638 155.569 143.557 155.47 143.476C155.452 143.458 155.435 143.449 155.426 143.441C155.408 143.441 155.39 143.423 155.354 143.405C155.255 143.36 155.166 143.297 155.067 143.252C155.04 143.243 154.888 143.18 154.825 143.145C154.762 143.127 154.663 143.091 154.646 143.082C154.386 143.01 154.126 142.965 153.866 142.92C153.839 142.92 153.821 142.92 153.803 142.911C153.785 142.911 153.767 142.911 153.74 142.911C153.606 142.911 153.471 142.911 153.346 142.911C153.05 142.911 152.754 142.938 152.467 142.974C152.332 142.992 152.198 143.01 152.072 143.028C152.01 143.037 151.974 143.046 151.956 143.046C151.947 143.046 151.911 143.055 151.839 143.073C151.14 143.234 150.432 143.414 149.714 143.458C149.123 143.494 148.477 143.073 148.316 142.49C148.163 141.934 148.325 141.163 148.89 140.876L148.863 140.867Z" fill="#FFAB91"/>
<path d="M145.384 141.306C146.756 140.616 148.441 140.266 149.974 140.293C151.445 140.32 152.879 140.723 154.045 141.647C155.031 142.427 155.721 143.629 155.954 144.857C156.071 145.476 156.161 146.104 156.125 146.732C156.107 147.09 156.08 147.503 155.99 147.861C155.865 148.364 155.578 148.713 155.192 149.045C154.69 149.467 153.848 149.18 153.525 148.686C153.166 148.13 153.202 147.557 153.166 146.929C153.157 146.705 153.148 146.472 153.121 146.247C153.112 146.122 153.085 146.005 153.076 145.88C153.112 146.247 153.076 145.88 153.059 145.799C153.005 145.566 152.933 145.333 152.852 145.108C152.816 145.019 152.781 144.938 152.754 144.848C152.736 144.821 152.727 144.795 152.709 144.768C152.619 144.615 152.521 144.472 152.422 144.328C152.467 144.4 152.323 144.212 152.279 144.167C152.189 144.077 152.09 143.996 151.992 143.916C151.974 143.898 151.956 143.889 151.947 143.88C151.929 143.88 151.911 143.862 151.875 143.844C151.776 143.799 151.687 143.736 151.588 143.692C151.561 143.683 151.409 143.62 151.346 143.584C151.283 143.566 151.185 143.53 151.167 143.521C150.907 143.449 150.647 143.405 150.387 143.36C150.36 143.36 150.342 143.36 150.324 143.351C150.306 143.351 150.288 143.351 150.261 143.351C150.127 143.351 149.992 143.351 149.867 143.351C149.571 143.351 149.275 143.378 148.988 143.414C148.854 143.432 148.719 143.449 148.594 143.467C148.531 143.476 148.495 143.485 148.477 143.485C148.468 143.485 148.432 143.494 148.361 143.512C147.661 143.674 146.953 143.853 146.236 143.898C145.644 143.934 144.998 143.512 144.837 142.929C144.685 142.373 144.846 141.602 145.411 141.315L145.384 141.306Z" fill="#FFAB91"/>
<path d="M157.595 143.216C156.385 144.185 153.444 145.279 151.992 145.79C149.087 146.803 145.563 145.566 143.932 142.956L145.976 137.917L160.859 138.338L157.595 143.225V143.216Z" fill="#FFAB91"/>
<path d="M156.268 139.342C157.64 138.652 159.326 138.302 160.859 138.329C162.329 138.356 163.764 138.759 164.929 139.683C165.915 140.463 166.606 141.665 166.839 142.893C166.955 143.512 167.045 144.14 167.009 144.768C166.991 145.126 166.964 145.539 166.875 145.898C166.749 146.4 166.462 146.749 166.077 147.081C165.575 147.503 164.732 147.216 164.409 146.723C164.051 146.167 164.086 145.593 164.051 144.965C164.042 144.741 164.033 144.508 164.006 144.283C163.997 144.158 163.97 144.041 163.961 143.916C163.997 144.283 163.961 143.916 163.943 143.835C163.889 143.602 163.817 143.369 163.737 143.145C163.701 143.055 163.665 142.974 163.638 142.885C163.62 142.858 163.611 142.831 163.593 142.804C163.504 142.651 163.405 142.508 163.306 142.364C163.351 142.436 163.208 142.248 163.163 142.203C163.073 142.113 162.975 142.033 162.876 141.952C162.858 141.934 162.84 141.925 162.831 141.916C162.813 141.916 162.795 141.898 162.759 141.88C162.661 141.835 162.571 141.773 162.473 141.728C162.446 141.719 162.293 141.656 162.231 141.62C162.168 141.602 162.069 141.566 162.051 141.557C161.791 141.486 161.531 141.441 161.271 141.396C161.244 141.396 161.226 141.396 161.208 141.387C161.19 141.387 161.173 141.387 161.146 141.387C161.011 141.387 160.877 141.387 160.751 141.387C160.455 141.387 160.159 141.414 159.873 141.45C159.738 141.468 159.604 141.486 159.478 141.504C159.415 141.512 159.379 141.521 159.361 141.521C159.353 141.521 159.317 141.53 159.245 141.548C158.546 141.71 157.837 141.889 157.12 141.934C156.528 141.97 155.883 141.548 155.721 140.965C155.569 140.41 155.73 139.638 156.295 139.351L156.268 139.342Z" fill="#FFAB91"/>
<path d="M114.676 136.607C115.932 133.854 118.415 131.729 121.32 130.904C121.885 130.743 122.163 131.603 121.598 131.765C118.899 132.527 116.64 134.473 115.483 137.029C115.241 137.558 114.434 137.136 114.676 136.607Z" fill="#FF8A65"/>
<path d="M171.994 165.142C172.469 164.98 172.702 165.716 172.236 165.877C167.977 167.33 164.839 171.311 164.382 175.777C164.328 176.27 163.575 176.091 163.629 175.607C164.122 170.881 167.511 166.675 172.003 165.142H171.994Z" fill="#27293B"/>
<path d="M108.804 153.287C114.434 154.928 120.325 155.582 126.179 155.269C132.034 154.955 137.826 153.672 143.259 151.484C146.334 150.247 149.275 148.713 152.054 146.902C152.476 146.633 152.888 147.279 152.476 147.548C147.491 150.794 141.941 153.161 136.158 154.569C130.402 155.968 124.431 156.425 118.532 155.896C115.179 155.6 111.87 154.982 108.643 154.04C108.167 153.906 108.338 153.143 108.813 153.287H108.804Z" fill="#DB6E00"/>
<path d="M166.606 165.142C166.803 164.684 167.484 165.043 167.287 165.501C166.561 167.168 166.095 168.935 165.888 170.738C165.862 170.944 165.611 171.069 165.422 171.024C165.198 170.98 165.108 170.764 165.135 170.558C165.351 168.684 165.853 166.864 166.606 165.133V165.142Z" fill="#27293B"/>
<path d="M165.144 150.552H210.851L217.719 120.681H172.012L165.144 150.552Z" fill="#B8B8B8"/>
<path d="M166.355 150.552H212.062L218.929 120.681H173.222L166.355 150.552Z" fill="#E5E5E5"/>
<path d="M137.037 150.991H166.355V148.794H137.037V150.991Z" fill="#B8B8B8"/>
<path d="M125.175 77.5207C126.843 80.175 129.855 81.9416 133.011 82.0044C135.791 82.0672 138.938 80.6055 139.771 77.7628C139.915 77.2875 140.668 77.4579 140.524 77.9332C139.816 80.3275 137.664 81.9416 135.306 82.5156C132.733 83.1433 129.954 82.5604 127.739 81.1525C126.448 80.3275 125.346 79.2335 124.53 77.9332C124.261 77.5117 124.915 77.0902 125.175 77.5117V77.5207Z" fill="#DB6E00"/>
<path d="M104.267 109.185H122.441C122.934 109.185 122.97 109.956 122.477 109.956H104.303C103.81 109.956 103.774 109.185 104.267 109.185Z" fill="#DB6E00"/>
<path d="M123.884 96.711L123.113 109.292C123.113 109.786 122.342 109.821 122.342 109.328L123.113 96.7469C123.113 96.2537 123.884 96.2178 123.884 96.711Z" fill="#DB6E00"/>
<path d="M103.541 99.8317C103.918 103.087 104.303 106.333 104.68 109.588C104.734 110.082 103.962 110.117 103.909 109.624C103.532 106.369 103.147 103.123 102.77 99.8676C102.716 99.3744 103.487 99.3385 103.541 99.8317Z" fill="#DB6E00"/>
<path d="M152.539 40.6016C153.408 41.3638 154.054 42.3861 154.368 43.5071C154.861 45.2557 154.502 47.2644 153.283 48.6185C152.072 49.9726 150.01 50.5555 148.316 49.874C148.961 46.9595 149.598 44.0451 150.243 41.1397L152.53 40.6016H152.539Z" fill="#74342E"/>
<path d="M151.696 40.6016C152.566 41.3638 153.211 42.3861 153.525 43.5071C154.018 45.2557 153.659 47.2644 152.44 48.6185C151.23 49.9726 149.168 50.5555 147.473 49.874C148.119 46.9595 148.755 44.0451 149.401 41.1397L151.687 40.6016H151.696Z" fill="#4E342E"/>
<path d="M127.946 66.5624L129.129 55.3172L140.65 56.5278L138.848 73.6557C134.509 73.01 130.447 70.248 127.955 66.5624H127.946Z" fill="#FF8A65"/>
<path d="M127.13 74.3462L127.946 66.5624C130.447 70.257 134.509 73.019 138.839 73.6557L138.642 75.5478C138.31 78.7313 135.459 81.0359 132.276 80.7041C129.093 80.3723 126.789 77.5207 127.121 74.3372L127.13 74.3462Z" fill="#FFAB91"/>
<path d="M139.736 68.7863C145.509 69.2796 150.602 64.9393 151.095 59.1015L152.61 41.2562L131.684 39.4807L130.169 57.3259C129.676 63.1637 133.962 68.2931 139.736 68.7863Z" fill="#FFAB91"/>
<path d="M125.229 52.9677C125.059 55.0033 126.565 56.7968 128.6 56.9672C130.635 57.1376 132.429 55.6311 132.599 53.5955C132.769 51.5598 131.263 49.7663 129.228 49.596C127.193 49.4256 125.399 50.9321 125.229 52.9677Z" fill="#FFAB91"/>
<path d="M139.458 51.7123C139.458 51.6495 139.476 51.5868 139.494 51.524C139.556 51.3267 139.664 51.1563 139.825 51.0128C139.978 50.8694 140.157 50.7797 140.363 50.7259C140.471 50.699 140.578 50.699 140.686 50.699C140.794 50.699 140.91 50.7169 141.018 50.7528L141.305 50.8873C141.305 50.8873 141.538 51.0846 141.547 51.0846C141.618 51.1563 141.681 51.246 141.726 51.3446C141.753 51.3895 141.78 51.4791 141.78 51.4971C141.798 51.5509 141.816 51.5957 141.834 51.6495C141.834 51.6585 141.86 51.9634 141.86 51.9813C141.843 52.0889 141.825 52.1965 141.807 52.3042C141.762 52.4028 141.717 52.4925 141.672 52.5911C141.609 52.6718 141.538 52.7525 141.475 52.8332C141.394 52.896 141.305 52.9498 141.224 53.0126C141.125 53.0485 141.027 53.0843 140.928 53.1202C140.82 53.1292 140.713 53.1381 140.605 53.1471C140.498 53.1292 140.39 53.1112 140.282 53.0933C140.121 53.0485 139.987 52.9677 139.879 52.8601C139.789 52.8063 139.718 52.7256 139.673 52.636C139.601 52.5552 139.547 52.4656 139.529 52.358C139.476 52.2593 139.458 52.1607 139.458 52.0441C139.431 51.9365 139.44 51.8289 139.467 51.7213L139.458 51.7123Z" fill="#3E2723"/>
<path d="M148.576 52.5911C148.576 52.5283 148.594 52.4656 148.612 52.4028C148.674 52.2055 148.782 52.0351 148.943 51.8916C149.096 51.7482 149.275 51.6585 149.481 51.6047C149.589 51.5778 149.696 51.5778 149.804 51.5778C149.912 51.5778 150.028 51.5957 150.136 51.6316L150.423 51.7661C150.423 51.7661 150.656 51.9634 150.665 51.9634C150.736 52.0351 150.799 52.1248 150.844 52.2234C150.871 52.2683 150.898 52.3579 150.898 52.3759C150.916 52.4297 150.934 52.4745 150.952 52.5283C150.952 52.5373 150.979 52.8422 150.979 52.8601C150.961 52.9677 150.943 53.0753 150.925 53.1829C150.88 53.2816 150.835 53.3713 150.79 53.4699C150.727 53.5506 150.656 53.6313 150.593 53.712C150.512 53.7748 150.423 53.8286 150.342 53.8914C150.243 53.9272 150.145 53.9631 150.046 53.999C149.938 54.008 149.831 54.0169 149.723 54.0259C149.616 54.008 149.508 53.99 149.401 53.9721C149.239 53.9272 149.105 53.8465 148.997 53.7389C148.907 53.6851 148.836 53.6044 148.791 53.5147C148.719 53.434 148.665 53.3444 148.647 53.2368C148.594 53.1381 148.576 53.0395 148.576 52.9229C148.549 52.8153 148.558 52.7077 148.585 52.6001L148.576 52.5911Z" fill="#3E2723"/>
<path d="M138.023 47.2017C138.848 46.5291 139.87 46.1435 140.937 46.1435C142.04 46.1435 143.071 46.6008 143.887 47.3182C144.093 47.4976 144.048 47.8652 143.86 48.0356C143.645 48.2329 143.349 48.1881 143.143 48.0087C141.896 46.9057 139.978 46.8968 138.705 47.946C138.202 48.3585 137.512 47.6142 138.023 47.2017Z" fill="#3E2723"/>
<path d="M147.428 47.4976C148.253 46.825 149.275 46.4394 150.342 46.4394C151.445 46.4394 152.476 46.8968 153.292 47.6142C153.498 47.7935 153.453 48.1612 153.265 48.3316C153.05 48.5288 152.754 48.484 152.548 48.3047C151.301 47.2017 149.383 47.1927 148.11 48.2419C147.607 48.6544 146.917 47.9101 147.428 47.4976Z" fill="#3E2723"/>
<path d="M146.738 52.9139C146.738 50.5645 148.647 48.6634 150.988 48.6634C153.328 48.6634 155.237 50.5734 155.237 52.9139C155.237 55.2544 153.328 57.1645 150.988 57.1645C148.647 57.1645 146.738 55.2544 146.738 52.9139ZM147.123 52.9139C147.123 55.0482 148.854 56.7789 150.988 56.7789C153.121 56.7789 154.852 55.0482 154.852 52.9139C154.852 50.7797 153.121 49.049 150.988 49.049C148.854 49.049 147.123 50.7797 147.123 52.9139Z" fill="black"/>
<path d="M136.338 51.9185C136.338 49.5691 138.247 47.668 140.587 47.668C142.927 47.668 144.837 49.578 144.837 51.9185C144.837 54.2591 142.927 56.1691 140.587 56.1691C138.247 56.1691 136.338 54.2591 136.338 51.9185ZM136.723 51.9185C136.723 54.0528 138.453 55.7835 140.587 55.7835C142.721 55.7835 144.451 54.0528 144.451 51.9185C144.451 49.7843 142.721 48.0536 140.587 48.0536C138.453 48.0536 136.723 49.7843 136.723 51.9185Z" fill="black"/>
<path d="M147.598 50.7348L147.769 50.3851C146.702 49.865 145.438 49.7305 144.281 50.0085L144.371 50.3851C145.438 50.125 146.612 50.2506 147.598 50.7348Z" fill="black"/>
<path d="M136.974 50.3851L137.073 50.0085C134.374 49.2821 131.595 48.9772 128.806 49.0938L128.824 49.4794C131.577 49.3628 134.32 49.6677 136.983 50.3851H136.974Z" fill="black"/>
<path d="M126.206 51.6854C126.735 50.8335 127.704 50.3492 128.708 50.4658C129.658 50.5734 130.474 51.2908 130.779 52.1876C130.94 52.6628 130.205 52.896 130.044 52.4297C129.828 51.793 129.255 51.3177 128.591 51.237C127.937 51.1473 127.237 51.4971 126.897 52.062C126.637 52.4835 125.946 52.1248 126.215 51.7033L126.206 51.6854Z" fill="#FF8A65"/>
<path d="M130.949 49.9188C132.303 48.9324 133.675 47.928 134.822 46.7085C135.97 45.4889 136.92 44.0182 137.261 42.3682C140.265 42.9152 143.34 43.794 146.361 44.2155C149.383 44.637 152.691 44.341 155.103 42.4758C157.55 40.5837 158.689 37.1491 157.846 34.1719C157.003 31.1947 154.242 28.8632 151.167 28.5224C148.092 28.1906 144.891 29.8855 143.438 32.6116C140.327 31.0513 136.248 30.7553 133.146 32.3246C131.882 32.9613 130.617 34.0912 130.707 35.5081C128.385 35.6785 126.457 37.0505 125.283 39.0592C124.099 41.0589 123.965 43.6505 124.942 45.7669C125.919 47.8832 128.663 49.5153 130.949 49.9188Z" fill="#74342E"/>
<path d="M130.949 49.9188C132.195 49.0041 134.267 48.0894 135.324 46.9595C136.391 45.8296 137.252 44.4756 137.575 42.9601C140.345 43.4622 143.178 44.2783 145.967 44.6639C148.755 45.0495 151.794 44.7805 154.018 43.0587C156.277 41.319 157.317 38.1535 156.546 35.4094C155.775 32.6654 153.229 30.5132 150.396 30.2083C147.563 29.9034 144.613 31.4638 143.277 33.9747C140.417 32.5399 136.651 32.2619 133.791 33.7056C132.626 34.2975 131.469 35.3287 131.541 36.638C129.407 36.7994 127.632 38.0638 126.538 39.9111C125.453 41.7584 125.328 44.1438 126.224 46.0897C127.121 48.0356 128.842 49.5422 130.958 49.9188H130.949Z" fill="#4E342E"/>
<path d="M145.501 61.7379C145.527 61.5048 145.725 61.4061 145.931 61.4061C146.55 61.4061 147.168 61.0205 147.464 60.4825C147.778 59.9175 147.706 59.1912 147.347 58.6621C146.926 58.0344 146.146 57.9268 145.599 57.4515C145.079 57.0031 144.828 56.2857 145.205 55.6669C145.465 55.2365 146.074 55.7028 145.823 56.1243C145.671 56.3754 145.931 56.7251 146.119 56.8776C146.433 57.1286 146.827 57.2632 147.168 57.4694C147.832 57.855 148.271 58.5186 148.396 59.2719C148.656 60.8412 147.365 62.1684 145.832 62.1773C145.626 62.1773 145.474 61.9352 145.501 61.7469V61.7379Z" fill="#3E2723"/>
<path d="M138.785 62.1415C139.825 64.0784 142.094 64.9572 144.165 64.2129C144.631 64.0426 144.873 64.7779 144.407 64.9483C142.031 65.8002 139.332 64.7869 138.14 62.5629C137.907 62.1235 138.552 61.7021 138.785 62.1415Z" fill="#3E2723"/>
<path d="M138.507 65.5222C138.552 65.3339 138.767 65.1635 138.973 65.2352C139.942 65.5581 140.901 65.8809 141.869 66.1948C142.067 66.2575 142.21 66.4369 142.156 66.6611C142.111 66.8494 141.896 67.0198 141.69 66.948C140.722 66.6252 139.762 66.3024 138.794 65.9885C138.597 65.9257 138.453 65.7464 138.507 65.5222Z" fill="#FF8A65"/>
<path d="M205.759 150.946C207.57 151.036 209.013 152.3 209.758 153.897C210.708 155.959 210.556 158.371 210.582 160.577C210.636 165.554 210.645 170.54 210.591 175.517C210.493 185.435 210.197 195.362 209.695 205.271C209.408 210.876 209.058 216.481 208.646 222.076C208.601 222.641 207.704 222.695 207.749 222.112C208.458 212.553 208.978 202.976 209.309 193.389C209.641 183.803 209.776 174.217 209.722 164.631C209.722 163.295 209.704 161.958 209.686 160.613C209.668 159.313 209.695 158.004 209.56 156.703C209.345 154.623 208.251 151.96 205.804 151.834C205.23 151.807 205.185 150.91 205.768 150.937L205.759 150.946Z" fill="#27293B"/>
<path d="M161.424 185.758L163.405 175.526C163.513 174.961 164.391 175.158 164.275 175.723L157.272 211.925L155.291 222.157C155.183 222.722 154.305 222.525 154.412 221.96C156.744 209.889 159.084 197.828 161.415 185.758H161.424Z" fill="#27293B"/>
<path d="M165.144 150.991H212.062C212.268 150.991 212.447 150.848 212.501 150.641L214.859 140.392C214.913 140.149 214.76 139.907 214.527 139.854C214.285 139.8 214.043 139.952 213.989 140.185L211.712 150.085H165.709L172.371 121.112H218.374L215.89 131.917C215.836 132.159 215.989 132.402 216.222 132.455C216.464 132.509 216.706 132.357 216.76 132.124L219.369 120.771C219.396 120.636 219.369 120.502 219.279 120.394C219.19 120.287 219.064 120.224 218.93 120.224H172.012C171.806 120.224 171.618 120.367 171.573 120.573L164.705 150.444C164.678 150.579 164.705 150.713 164.795 150.821C164.884 150.928 165.01 150.991 165.144 150.991Z" fill="#B8B8B8"/>
</g>
<defs>
<clipPath id="clip0_1_3707">
<rect width="308.967" height="270.217" fill="white" transform="translate(0.166626 0.777084)"/>
</clipPath>
</defs>
</svg>
