<svg width="78" height="31" viewBox="0 0 78 31" fill="none" xmlns="http://www.w3.org/2000/svg">
<g filter="url(#filter0_d_4_57)">
<g filter="url(#filter1_d_4_57)">
<path d="M8.92718 9.11119C9.21973 9.11119 9.5003 8.99511 9.70716 8.78849C9.91403 8.58187 10.0302 8.30164 10.0302 8.00944V5.09145C14.9655 2.72284 25.4583 2.86694 28.1965 6.25925C31.3224 10.1229 32.0347 22.9776 28.1965 26.1358C24.3582 29.2939 12.1643 29.2579 8.29298 26.1358C5.14605 23.596 4.79138 14.3588 6.66391 9.11119H8.92718Z" fill="#072F53"/>
</g>
<path d="M9.99399 0.357014H11.3465C11.497 0.356618 11.6461 0.385932 11.7852 0.443272C11.9244 0.500612 12.0508 0.584848 12.1572 0.691137C12.2636 0.797426 12.3479 0.923672 12.4053 1.06262C12.4627 1.20157 12.4921 1.35048 12.4917 1.50079V2.86673C12.4917 3.00315 12.4376 3.13404 12.3413 3.23079C12.245 3.32753 12.1143 3.38229 11.9777 3.38308H10.6222C10.3187 3.38229 10.0279 3.26153 9.8133 3.0472C9.59872 2.83287 9.47781 2.54241 9.47702 2.2393V0.870364C9.47781 0.73394 9.53263 0.603374 9.62949 0.507187C9.72636 0.411001 9.8574 0.357012 9.99399 0.357014Z" fill="#072F53"/>
<path d="M0.502011 3.55866e-05H1.85456C2.00556 -0.00115565 2.1553 0.0275712 2.29511 0.0845552C2.43492 0.141539 2.56203 0.225647 2.66909 0.332016C2.77614 0.438384 2.86102 0.5649 2.9188 0.704244C2.97658 0.843587 3.00613 0.992993 3.00573 1.14382V2.49474C3.00612 2.5624 2.99312 2.62948 2.96747 2.69211C2.94182 2.75474 2.90403 2.81168 2.85626 2.85967C2.8085 2.90766 2.7517 2.94574 2.68915 2.97173C2.62659 2.99771 2.55951 3.01109 2.49176 3.01109H1.13921C0.836539 3.0095 0.546807 2.8883 0.333346 2.67397C0.119885 2.45964 5.62668e-05 2.16962 6.05583e-05 1.86731V0.513386C2.38419e-05 0.379293 0.0525234 0.250506 0.146326 0.154572C0.240129 0.0586382 0.367792 0.00317227 0.502011 3.55866e-05Z" fill="#072F53"/>
<path d="M1.6953 7.8265H3.47765C3.87622 7.8265 4.25846 7.98464 4.5403 8.26614C4.82213 8.54764 4.98047 8.92942 4.98047 9.32752V11.1107C4.98047 11.1998 4.9629 11.2881 4.92876 11.3704C4.89463 11.4527 4.84458 11.5275 4.78151 11.5905C4.71843 11.6535 4.64355 11.7035 4.56114 11.7375C4.47872 11.7716 4.39039 11.7892 4.30119 11.7892H2.51884C2.12027 11.7892 1.73801 11.6311 1.45618 11.3496C1.17435 11.0681 1.01602 10.6863 1.01602 10.2882V8.50496C1.01602 8.41586 1.03359 8.32764 1.06772 8.24533C1.10186 8.16301 1.15189 8.08822 1.21497 8.02522C1.27805 7.96222 1.35294 7.91224 1.43535 7.87815C1.51776 7.84405 1.60609 7.8265 1.6953 7.8265Z" fill="#072F53"/>
<path d="M4.85469 2.71112H7.30732C7.85735 2.71112 8.38485 2.92936 8.77379 3.31783C9.16272 3.70629 9.38122 4.23317 9.38122 4.78254V7.23222C9.38162 7.35469 9.35781 7.47603 9.31116 7.58928C9.26451 7.70254 9.19594 7.80548 9.10938 7.89222C9.02282 7.97896 8.91998 8.04778 8.80673 8.09473C8.69349 8.14169 8.57208 8.16586 8.44946 8.16586H5.99685C5.7231 8.16744 5.45172 8.11496 5.19835 8.01142C4.94498 7.90787 4.71461 7.75532 4.52047 7.56254C4.32634 7.36975 4.17227 7.14054 4.06715 6.88807C3.96202 6.6356 3.90791 6.36487 3.90791 6.09144V3.64176C3.9079 3.51827 3.93248 3.39602 3.98025 3.28212C4.02801 3.16822 4.09799 3.06495 4.18611 2.97834C4.27423 2.89172 4.37873 2.82349 4.49352 2.77761C4.6083 2.73173 4.73107 2.70913 4.85469 2.71112Z" fill="#FBC108"/>
<g filter="url(#filter2_d_4_57)">
<path d="M9.55268 16.4471C9.54903 15.6599 9.70101 14.8797 9.9999 14.1513C10.2988 13.4228 10.7387 12.7605 11.2944 12.2022C11.8502 11.6439 12.5107 11.2007 13.2383 10.898C13.9659 10.5953 14.7462 10.439 15.5344 10.4381H17.9518C17.9518 10.7465 17.8909 11.0519 17.7728 11.3368C17.6546 11.6217 17.4813 11.8806 17.2629 12.0986C17.0446 12.3167 16.7853 12.4896 16.5 12.6075C16.2147 12.7255 15.9089 12.7861 15.6001 12.786H15.5802C13.5817 12.786 11.9234 14.3801 11.9043 16.3762C11.9002 16.8552 11.991 17.3303 12.1716 17.7741C12.3521 18.2178 12.6187 18.6215 12.9561 18.9619C13.2936 19.3023 13.6951 19.5727 14.1376 19.7574C14.5801 19.9421 15.0548 20.0375 15.5344 20.0382H23.6799C24.1161 20.0412 24.5364 19.8742 24.8514 19.5726C25.1664 19.2711 25.3512 18.8588 25.3668 18.4233C25.3718 18.2028 25.3328 17.9834 25.2518 17.7782C25.1708 17.5729 25.0496 17.3859 24.8953 17.2281C24.741 17.0702 24.5567 16.9448 24.3532 16.8591C24.1496 16.7734 23.931 16.7291 23.7101 16.7289H21.1568C19.4258 16.7289 17.9864 15.3579 17.9604 13.6324C17.9539 13.215 18.0305 12.8005 18.1857 12.413C18.341 12.0255 18.5718 11.6727 18.8648 11.3751C19.1578 11.0774 19.5071 10.841 19.8924 10.6794C20.2777 10.5178 20.6913 10.4343 21.1092 10.4338H26.4876C26.4876 11.0565 26.24 11.6537 25.7991 12.094C25.3582 12.5343 24.7603 12.7817 24.1369 12.7817H21.13C21.0229 12.7812 20.9168 12.8019 20.8177 12.8424C20.7186 12.8829 20.6285 12.9425 20.5525 13.0178C20.4764 13.0931 20.416 13.1826 20.3746 13.2812C20.3332 13.3798 20.3117 13.4857 20.3112 13.5926C20.3151 13.8015 20.4008 14.0006 20.55 14.147C20.6992 14.2935 20.9 14.3756 21.1092 14.3758H23.6591C25.8662 14.3758 27.6968 16.1359 27.7184 18.3395C27.723 18.8683 27.6227 19.3928 27.4234 19.8828C27.224 20.3728 26.9296 20.8185 26.557 21.1942C26.1844 21.57 25.741 21.8684 25.2524 22.0722C24.7638 22.276 24.2397 22.3813 23.7101 22.3818H15.6001C12.299 22.3818 9.57172 19.7391 9.55268 16.4428" fill="white"/>
</g>
</g>
<g filter="url(#filter3_d_4_57)">
<path d="M6.1238 5.97779V5.23351H6.28187V5.97779C6.28187 6.14694 6.20283 6.19205 6.04477 6.19205H5.15281C4.98345 6.19205 4.88184 6.05673 4.88184 5.88757V4.26369C4.88184 4.09454 4.99474 3.97049 5.19797 3.97049H8.11094C8.31417 3.97049 8.42708 4.10581 8.42708 4.27216V5.88757C8.42708 6.05673 8.31417 6.18078 8.14481 6.18078H7.23028C7.11737 6.18078 7.02705 6.13567 7.02705 6.04918V5.23351H7.18511V5.97779C7.18511 6.0229 7.18511 6.0229 7.23028 6.0229H8.14481C8.22385 6.0229 8.26901 5.97779 8.269 5.88757V4.27216C8.26817 4.17264 8.2228 4.12837 8.11094 4.12837H5.19797C5.09636 4.12835 5.0399 4.17347 5.0399 4.26369V5.88757C5.0399 5.95524 5.06249 6.0229 5.15281 6.0229H6.04477C6.11054 6.0228 6.1238 6.01162 6.1238 5.97779Z" fill="white"/>
<path d="M6.34047 5.08695C6.34047 5.16316 6.27869 5.22494 6.20248 5.22494C6.12627 5.22494 6.06449 5.16316 6.06449 5.08695C6.06449 5.01074 6.12627 4.94897 6.20248 4.94897C6.27869 4.94897 6.34047 5.01074 6.34047 5.08695Z" stroke="white" stroke-width="0.0623333"/>
<path d="M7.24379 5.08695C7.24379 5.16316 7.18201 5.22494 7.1058 5.22494C7.02959 5.22494 6.96781 5.16316 6.96781 5.08695C6.96781 5.01074 7.02959 4.94897 7.1058 4.94897C7.18201 4.94897 7.24379 5.01074 7.24379 5.08695Z" stroke="white" stroke-width="0.0623333"/>
<path d="M6.89142 4.782C6.89142 4.90689 6.79018 5.00813 6.6653 5.00813C6.54042 5.00813 6.43918 4.90689 6.43918 4.782C6.43918 4.65712 6.54042 4.55588 6.6653 4.55588C6.79018 4.55588 6.89142 4.65712 6.89142 4.782Z" stroke="white" stroke-width="0.0890475"/>
<rect x="6.57532" y="5.03023" width="0.157877" height="1.08259" fill="white"/>
<path d="M5.98808 5.95556V5.82023H5.27678C5.2542 5.82023 5.24291 5.80895 5.24291 5.76385V4.38079C5.24348 4.34323 5.2542 4.33145 5.32194 4.33167H8.01401C8.06554 4.33145 8.06554 4.37655 8.06554 4.42166V5.76385C8.06554 5.79745 8.04296 5.82023 8.01401 5.82023L7.32037 5.82V5.95556H8.01401C8.15587 5.95556 8.20103 5.9215 8.20103 5.76385V4.42166V4.36528C8.20103 4.20736 8.13329 4.19614 8.01401 4.19612H5.32194C5.16387 4.19604 5.10742 4.21859 5.10742 4.38079V5.76385C5.10742 5.91045 5.1413 5.95556 5.27678 5.95556H5.98808Z" fill="white"/>
<rect x="6.25891" y="6.27057" width="0.790335" height="0.135323" fill="white"/>
<rect x="6.25891" y="6.51891" width="0.790335" height="0.135323" fill="white"/>
<rect x="5.71741" y="6.78969" width="1.87421" height="0.135323" fill="white"/>
</g>
<rect x="36" y="24.75" width="40.5" height="0.75" fill="#072F53"/>
<rect width="0.308" height="3.44496" transform="matrix(0.781466 -0.623948 0.624864 0.780734 52.1605 25.2085)" fill="#072F53"/>
<path d="M77.891 25.1145C77.891 25.4751 77.5853 25.7749 77.1988 25.7749C76.8123 25.7749 76.5065 25.4751 76.5065 25.1145C76.5065 24.7538 76.8123 24.454 77.1988 24.454C77.5853 24.454 77.891 24.7538 77.891 25.1145Z" stroke="#FBC108" stroke-width="0.217888"/>
<rect x="54.3032" y="27.5763" width="20.6149" height="0.307775" fill="#072F53"/>
<path d="M76.2286 27.7306C76.2286 28.0912 75.9229 28.3911 75.5364 28.3911C75.1499 28.3911 74.8442 28.0912 74.8442 27.7306C74.8442 27.3699 75.1499 27.0701 75.5364 27.0701C75.9229 27.0701 76.2286 27.3699 76.2286 27.7306Z" stroke="#FBC108" stroke-width="0.217888"/>
<g filter="url(#filter4_d_4_57)">
<path d="M1.7915 1.89142L2.1213 1.56229L1.79284 1.23449H2.00204L2.33251 1.56229L2.00271 1.89142H1.7915Z" fill="#FBC108"/>
</g>
<g filter="url(#filter5_d_4_57)">
<path d="M1.54597 1.89145L1.28613 1.03263H1.46203L1.72253 1.89145H1.54597Z" fill="#FBC108"/>
</g>
<g filter="url(#filter6_d_4_57)">
<path d="M1.00546 1.89142L0.675659 1.56228L1.00612 1.23448H1.21533L0.886864 1.56228L1.21666 1.89142H1.00546Z" fill="#FBC108"/>
</g>
<path d="M35.6654 22.5V9.09174H38.5002V14.624H44.255V9.09174H47.0833V22.5H44.255V16.9612H38.5002V22.5H35.6654ZM55.817 18.2183V12.4438H58.6061V22.5H55.9283V20.6734H55.8236C55.5966 21.2626 55.2191 21.7362 54.691 22.0941C54.1672 22.452 53.5278 22.6309 52.7727 22.6309C52.1005 22.6309 51.5091 22.4782 50.9984 22.1726C50.4878 21.8671 50.0884 21.4328 49.8003 20.8698C49.5166 20.3068 49.3726 19.6324 49.3682 18.8468V12.4438H52.1573V18.3492C52.1616 18.9428 52.3209 19.412 52.6352 19.7568C52.9495 20.1016 53.3706 20.274 53.8988 20.274C54.2349 20.274 54.5491 20.1976 54.8415 20.0449C55.134 19.8877 55.3697 19.6564 55.5486 19.3509C55.7319 19.0454 55.8214 18.6678 55.817 18.2183ZM60.8893 22.5V9.09174H63.6784V14.1329H63.7635C63.8857 13.8623 64.0624 13.5873 64.2938 13.308C64.5295 13.0243 64.835 12.7886 65.2104 12.6009C65.5901 12.4089 66.0615 12.3129 66.6245 12.3129C67.3578 12.3129 68.0343 12.5049 68.6541 12.889C69.2739 13.2687 69.7693 13.8427 70.1402 14.6109C70.5112 15.3747 70.6967 16.3327 70.6967 17.485C70.6967 18.6067 70.5156 19.5538 70.1533 20.3264C69.7954 21.0946 69.3066 21.6773 68.6868 22.0744C68.0714 22.4673 67.3818 22.6637 66.618 22.6637C66.0767 22.6637 65.6163 22.5742 65.2365 22.3952C64.8612 22.2163 64.5535 21.9915 64.3134 21.7209C64.0734 21.4459 63.89 21.1688 63.7635 20.8894H63.6391V22.5H60.8893ZM63.6194 17.4719C63.6194 18.0699 63.7024 18.5914 63.8682 19.0366C64.0341 19.4818 64.2741 19.8288 64.5884 20.0776C64.9026 20.322 65.2846 20.4442 65.7341 20.4442C66.188 20.4442 66.5721 20.3198 66.8864 20.0711C67.2006 19.8179 67.4385 19.4687 67.6 19.0235C67.7659 18.574 67.8488 18.0568 67.8488 17.4719C67.8488 16.8914 67.7681 16.3807 67.6066 15.9399C67.4451 15.4991 67.2072 15.1543 66.8929 14.9055C66.5787 14.6567 66.1924 14.5323 65.7341 14.5323C65.2802 14.5323 64.8961 14.6523 64.5818 14.8924C64.272 15.1324 64.0341 15.4729 63.8682 15.9137C63.7024 16.3545 63.6194 16.8739 63.6194 17.4719Z" fill="#072F53"/>
<defs>
<filter id="filter0_d_4_57" x="0" y="0" width="30.839" height="28.6119" filterUnits="userSpaceOnUse" color-interpolation-filters="sRGB">
<feFlood flood-opacity="0" result="BackgroundImageFix"/>
<feColorMatrix in="SourceAlpha" type="matrix" values="0 0 0 0 0 0 0 0 0 0 0 0 0 0 0 0 0 0 127 0" result="hardAlpha"/>
<feOffset dx="0.0242097" dy="0.121049"/>
<feComposite in2="hardAlpha" operator="out"/>
<feColorMatrix type="matrix" values="0 0 0 0 1 0 0 0 0 1 0 0 0 0 1 0 0 0 1 0"/>
<feBlend mode="normal" in2="BackgroundImageFix" result="effect1_dropShadow_4_57"/>
<feBlend mode="normal" in="SourceGraphic" in2="effect1_dropShadow_4_57" result="shape"/>
</filter>
<filter id="filter1_d_4_57" x="5.52209" y="3.48686" width="25.3411" height="25.0524" filterUnits="userSpaceOnUse" color-interpolation-filters="sRGB">
<feFlood flood-opacity="0" result="BackgroundImageFix"/>
<feColorMatrix in="SourceAlpha" type="matrix" values="0 0 0 0 0 0 0 0 0 0 0 0 0 0 0 0 0 0 127 0" result="hardAlpha"/>
<feOffset dx="0.0484195" dy="0.0484195"/>
<feComposite in2="hardAlpha" operator="out"/>
<feColorMatrix type="matrix" values="0 0 0 0 0.954167 0 0 0 0 0.734964 0 0 0 0 0.0357812 0 0 0 1 0"/>
<feBlend mode="normal" in2="BackgroundImageFix" result="effect1_dropShadow_4_57"/>
<feBlend mode="normal" in="SourceGraphic" in2="effect1_dropShadow_4_57" result="shape"/>
</filter>
<filter id="filter2_d_4_57" x="9.45577" y="10.4338" width="18.3596" height="12.1417" filterUnits="userSpaceOnUse" color-interpolation-filters="sRGB">
<feFlood flood-opacity="0" result="BackgroundImageFix"/>
<feColorMatrix in="SourceAlpha" type="matrix" values="0 0 0 0 0 0 0 0 0 0 0 0 0 0 0 0 0 0 127 0" result="hardAlpha"/>
<feOffset dy="0.096839"/>
<feGaussianBlur stdDeviation="0.0484195"/>
<feComposite in2="hardAlpha" operator="out"/>
<feColorMatrix type="matrix" values="0 0 0 0 0 0 0 0 0 0 0 0 0 0 0 0 0 0 0.25 0"/>
<feBlend mode="normal" in2="BackgroundImageFix" result="effect1_dropShadow_4_57"/>
<feBlend mode="normal" in="SourceGraphic" in2="effect1_dropShadow_4_57" result="shape"/>
</filter>
<filter id="filter3_d_4_57" x="4.83731" y="3.97049" width="3.63434" height="3.04357" filterUnits="userSpaceOnUse" color-interpolation-filters="sRGB">
<feFlood flood-opacity="0" result="BackgroundImageFix"/>
<feColorMatrix in="SourceAlpha" type="matrix" values="0 0 0 0 0 0 0 0 0 0 0 0 0 0 0 0 0 0 127 0" result="hardAlpha"/>
<feOffset dy="0.0445238"/>
<feGaussianBlur stdDeviation="0.0222619"/>
<feComposite in2="hardAlpha" operator="out"/>
<feColorMatrix type="matrix" values="0 0 0 0 0 0 0 0 0 0 0 0 0 0 0 0 0 0 0.25 0"/>
<feBlend mode="normal" in2="BackgroundImageFix" result="effect1_dropShadow_4_57"/>
<feBlend mode="normal" in="SourceGraphic" in2="effect1_dropShadow_4_57" result="shape"/>
</filter>
<filter id="filter4_d_4_57" x="1.69466" y="1.23449" width="0.734694" height="0.850613" filterUnits="userSpaceOnUse" color-interpolation-filters="sRGB">
<feFlood flood-opacity="0" result="BackgroundImageFix"/>
<feColorMatrix in="SourceAlpha" type="matrix" values="0 0 0 0 0 0 0 0 0 0 0 0 0 0 0 0 0 0 127 0" result="hardAlpha"/>
<feOffset dy="0.096839"/>
<feGaussianBlur stdDeviation="0.0484195"/>
<feComposite in2="hardAlpha" operator="out"/>
<feColorMatrix type="matrix" values="0 0 0 0 0 0 0 0 0 0 0 0 0 0 0 0 0 0 0.25 0"/>
<feBlend mode="normal" in2="BackgroundImageFix" result="effect1_dropShadow_4_57"/>
<feBlend mode="normal" in="SourceGraphic" in2="effect1_dropShadow_4_57" result="shape"/>
</filter>
<filter id="filter5_d_4_57" x="1.18929" y="1.03263" width="0.630079" height="1.05249" filterUnits="userSpaceOnUse" color-interpolation-filters="sRGB">
<feFlood flood-opacity="0" result="BackgroundImageFix"/>
<feColorMatrix in="SourceAlpha" type="matrix" values="0 0 0 0 0 0 0 0 0 0 0 0 0 0 0 0 0 0 127 0" result="hardAlpha"/>
<feOffset dy="0.096839"/>
<feGaussianBlur stdDeviation="0.0484195"/>
<feComposite in2="hardAlpha" operator="out"/>
<feColorMatrix type="matrix" values="0 0 0 0 0 0 0 0 0 0 0 0 0 0 0 0 0 0 0.25 0"/>
<feBlend mode="normal" in2="BackgroundImageFix" result="effect1_dropShadow_4_57"/>
<feBlend mode="normal" in="SourceGraphic" in2="effect1_dropShadow_4_57" result="shape"/>
</filter>
<filter id="filter6_d_4_57" x="0.57882" y="1.23448" width="0.734694" height="0.850613" filterUnits="userSpaceOnUse" color-interpolation-filters="sRGB">
<feFlood flood-opacity="0" result="BackgroundImageFix"/>
<feColorMatrix in="SourceAlpha" type="matrix" values="0 0 0 0 0 0 0 0 0 0 0 0 0 0 0 0 0 0 127 0" result="hardAlpha"/>
<feOffset dy="0.096839"/>
<feGaussianBlur stdDeviation="0.0484195"/>
<feComposite in2="hardAlpha" operator="out"/>
<feColorMatrix type="matrix" values="0 0 0 0 0 0 0 0 0 0 0 0 0 0 0 0 0 0 0.25 0"/>
<feBlend mode="normal" in2="BackgroundImageFix" result="effect1_dropShadow_4_57"/>
<feBlend mode="normal" in="SourceGraphic" in2="effect1_dropShadow_4_57" result="shape"/>
</filter>
</defs>
</svg>
