<svg width="14" height="16" viewBox="0 0 14 16" fill="none" xmlns="http://www.w3.org/2000/svg">
<path d="M1.89384 0.59221H9.83363V5.35181H10.4153C10.4185 5.29123 10.4245 5.22707 10.4249 5.16331C10.4253 3.58195 10.4257 2.001 10.4249 0.419648C10.4249 0.0892699 10.334 0.000797053 9.99538 0.000797053C7.01413 0 4.03247 0 1.05082 0C0.728909 0 0.633691 0.0948493 0.633691 0.412076C0.633691 4.44476 0.635285 8.47785 0.630106 12.5105C0.630106 12.7309 0.706201 12.864 0.889068 12.9796C2.40938 13.9401 3.9253 14.9081 5.44242 15.8733C5.48147 15.8984 5.52011 15.9243 5.56075 15.9466C5.7974 16.0758 6.00856 15.963 6.01573 15.6904C6.02569 15.2919 6.01971 14.8933 6.02011 14.4944C6.02011 14.0624 6.02011 13.6308 6.02011 13.1988C6.02011 13.1203 6.02011 13.0422 6.02011 12.9401C6.1225 12.9401 6.20019 12.9401 6.27748 12.9401C7.5193 12.9401 8.76113 12.9409 10.0026 12.9413C10.338 12.9413 10.4253 12.8541 10.4257 12.5185C10.4257 10.9308 10.4257 9.34265 10.4257 7.75492V7.52856H9.85116V12.3428H6.03326C6.02887 12.2547 6.02091 12.1646 6.02091 12.0746C6.02011 9.23784 6.01613 6.40073 6.02529 3.56402C6.02609 3.28904 5.93246 3.13162 5.70019 2.99094C4.4743 2.24849 3.25837 1.49009 2.03886 0.736875C1.98428 0.703 1.93289 0.664343 1.8799 0.627679C1.88468 0.615723 1.88946 0.603767 1.89384 0.59221ZM1.21696 0.925378C1.30819 0.974795 1.36596 1.00309 1.42054 1.03657C2.70181 1.82804 3.98148 2.6219 5.26593 3.4086C5.40179 3.49189 5.45119 3.58315 5.45119 3.74136C5.44721 7.47476 5.448 11.2078 5.4476 14.9411C5.4476 15.0085 5.43924 15.0759 5.43286 15.1679C5.35278 15.1225 5.30657 15.0986 5.26235 15.0707C3.96315 14.2449 2.66595 13.4168 1.36357 12.5958C1.23448 12.5145 1.21536 12.4189 1.21536 12.2842C1.21775 8.59063 1.21735 4.89749 1.21696 1.20395C1.21696 1.12464 1.21696 1.04533 1.21696 0.925378Z" fill="#131313"/>
<path d="M12.373 6.18233C12.2463 6.18233 12.1738 6.18233 12.1013 6.18233C10.5208 6.18233 8.93997 6.18233 7.3595 6.18233C7.29974 6.18233 7.23919 6.17755 7.18022 6.18552C7.02206 6.20744 6.92405 6.2995 6.91608 6.45971C6.90811 6.62231 7.00413 6.71995 7.15672 6.75581C7.22006 6.77096 7.28859 6.76418 7.35512 6.76458C8.92921 6.76458 10.5029 6.76458 12.077 6.76458C12.1543 6.76458 12.2316 6.76458 12.3531 6.76458C12.2778 6.85066 12.2348 6.90526 12.1862 6.95468C11.8547 7.29024 11.5212 7.6234 11.1906 7.96016C11.0296 8.12395 11.0172 8.28376 11.1475 8.41328C11.2702 8.53483 11.4495 8.51889 11.6029 8.36506C12.1571 7.81071 12.7101 7.25517 13.2619 6.69842C13.4081 6.55097 13.4061 6.37721 13.2555 6.22617C12.7065 5.6762 12.1563 5.12704 11.6049 4.57946C11.4491 4.42483 11.2718 4.40889 11.1479 4.53044C11.0169 4.65956 11.0284 4.82017 11.1902 4.98357C11.5264 5.32391 11.8658 5.66066 12.2037 5.99941C12.2491 6.04484 12.2917 6.09386 12.373 6.18154V6.18233Z" fill="#131313"/>
<path d="M4.57656 8.44C4.57656 8.21484 4.58094 7.98927 4.57536 7.7641C4.57098 7.58517 4.45584 7.46401 4.30126 7.45883C4.1403 7.45365 4.01242 7.57998 4.01042 7.76769C4.00564 8.21165 4.00564 8.65561 4.01162 9.09957C4.01401 9.29086 4.11799 9.39408 4.28532 9.39766C4.46142 9.40165 4.57098 9.29405 4.57616 9.09558C4.58213 8.87719 4.57735 8.6584 4.57735 8.43961H4.57656V8.44Z" fill="#131313"/>
</svg>
