<svg width="48" height="58" viewBox="0 0 48 58" fill="none" xmlns="http://www.w3.org/2000/svg">
<g clip-path="url(#clip0_1_672)">
<path d="M23.6207 0.0112108C21.6514 0.0112108 19.7455 0.194318 18.0864 0.504478C13.1686 1.36396 12.3054 3.15018 12.3054 6.53205V10.9602H23.8673V12.4363H8.00056C4.67848 12.4363 1.73008 14.4654 0.807076 18.277C-0.239248 22.7052 -0.299038 25.4107 0.807076 30.022C1.60677 33.4674 3.5761 35.8628 6.95797 35.8628H10.9564V30.5751C10.9564 26.7635 14.2785 23.3816 18.1499 23.3816H29.6483C32.847 23.3816 35.4292 20.7359 35.4292 17.4774V6.46853C35.4292 3.33329 32.7835 0.994008 29.6483 0.440951C27.6154 0.134528 25.5863 -0.0485791 23.6207 0.0112108ZM17.3465 3.5164C18.5161 3.5164 19.4989 4.49919 19.4989 5.72863C19.4989 6.95806 18.5161 7.94085 17.3465 7.94085C16.1768 7.94085 15.194 6.95806 15.194 5.72863C15.194 4.49919 16.117 3.5164 17.3465 3.5164Z" fill="url(#paint0_linear_1_672)"/>
<path d="M36.8417 12.3093V17.4138C36.8417 21.4123 33.4599 24.7306 29.5847 24.7306H18.0864C14.9511 24.7306 12.3054 27.4361 12.3054 30.6349V41.6437C12.3054 44.779 15.0109 46.625 18.0864 47.548C21.7149 48.6541 25.2201 48.8409 29.6482 47.548C32.5368 46.6885 35.4292 45.0256 35.4292 41.6437V37.2155H23.8636V35.7395H41.2064C44.5285 35.7395 45.8177 33.4039 46.9873 29.8987C48.2168 26.2702 48.157 22.8286 46.9873 18.1537C46.1876 14.8317 44.5883 12.313 41.2064 12.313L36.8417 12.3093ZM30.3209 40.1677C31.4905 40.1677 32.4733 41.1504 32.4733 42.3799C32.4733 43.6093 31.4905 44.5921 30.3209 44.5921C29.1512 44.5921 28.1684 43.6093 28.1684 42.3799C28.1684 41.1504 29.155 40.1677 30.3209 40.1677Z" fill="url(#paint1_linear_1_672)"/>
<path opacity="0.44" d="M39.4839 54.9881C39.4839 56.6472 32.537 58 23.987 58C15.4371 58 8.49023 56.6472 8.49023 54.9881C8.49023 53.3289 15.4371 51.9761 23.987 51.9761C32.537 51.9761 39.4839 53.3251 39.4839 54.9881Z" fill="url(#paint2_radial_1_672)"/>
</g>
<defs>
<linearGradient id="paint0_linear_1_672" x1="0.551197" y1="4.74063" x2="27.2019" y2="27.4482" gradientUnits="userSpaceOnUse">
<stop stop-color="#5CA0D5"/>
<stop offset="1" stop-color="#316A99"/>
</linearGradient>
<linearGradient id="paint1_linear_1_672" x1="37.2551" y1="41.5776" x2="27.6931" y2="28.1816" gradientUnits="userSpaceOnUse">
<stop stop-color="#FFD43E"/>
<stop offset="1" stop-color="#FFE975"/>
</linearGradient>
<radialGradient id="paint2_radial_1_672" cx="0" cy="0" r="1" gradientUnits="userSpaceOnUse" gradientTransform="translate(26.4043 61.5633) rotate(-90) scale(3.00084 13.1885)">
<stop stop-color="#B8B8B8" stop-opacity="0.5"/>
<stop offset="1" stop-color="#7F8080" stop-opacity="0"/>
</radialGradient>
<clipPath id="clip0_1_672">
<rect width="47.8873" height="58" fill="white"/>
</clipPath>
</defs>
</svg>
