<svg width="66" height="58" viewBox="0 0 66 58" fill="none" xmlns="http://www.w3.org/2000/svg">
<g clip-path="url(#clip0_1_678)">
<path d="M65.1288 29.0067C65.1288 24.6923 59.7259 20.6035 51.442 18.0678C53.3537 9.62476 52.5041 2.90735 48.7603 0.75667C47.8973 0.252322 46.8883 0.0133582 45.7867 0.0133582V2.97354C46.3973 2.97354 46.8886 3.09288 47.3 3.31878C49.1055 4.35419 49.8889 8.29695 49.278 13.3683C49.1319 14.6163 48.8929 15.9304 48.6008 17.2713C45.999 16.634 43.1578 16.143 40.1709 15.8242C38.3788 13.3683 36.5202 11.1381 34.6483 9.18661C38.9761 5.1643 43.0385 2.96048 45.7995 2.96048V0C42.1488 0 37.3695 2.60189 32.5374 7.11549C27.7056 2.62861 22.9266 0.0531361 19.2759 0.0531361V3.01362C22.0239 3.01362 26.0993 5.20407 30.4271 9.19997C28.5685 11.1515 26.71 13.3683 24.9443 15.8245C21.944 16.143 19.1032 16.6343 16.5013 17.2847C16.1958 15.9572 15.9702 14.6694 15.8111 13.4348C15.1871 8.36374 15.9572 4.42098 17.7492 3.37221C18.1476 3.13325 18.6653 3.02698 19.2759 3.02698V0.0664944C18.1607 0.0664944 17.152 0.305458 16.2757 0.809806C12.5452 2.96048 11.7089 9.66454 13.634 18.0811C5.37654 20.6299 0 24.7053 0 29.0067C0 33.308 5.40296 37.4099 13.6869 39.9456C11.7751 48.3886 12.6247 55.106 16.3686 57.2567C17.2315 57.761 18.2405 58 19.3555 58C23.0062 58 27.7854 55.3981 32.6176 50.8845C37.4497 55.3717 42.229 57.9469 45.8796 57.9469C46.9949 57.9469 48.0036 57.7079 48.8799 57.2036C52.6104 55.0529 53.4466 48.3488 51.5215 39.9322C59.7523 37.3965 65.1288 33.3077 65.1288 29.0067ZM47.8445 20.1519C47.3532 21.8645 46.7426 23.6301 46.0524 25.3958C45.508 24.3337 44.9371 23.2718 44.3134 22.2097C43.7028 21.1476 43.0524 20.1122 42.4017 19.1032C44.2867 19.3819 46.1055 19.7272 47.8448 20.1519H47.8445ZM41.7644 34.2903C40.729 36.0824 39.6669 37.7819 38.5649 39.3614C36.587 39.5339 34.5824 39.6268 32.5644 39.6268C30.5464 39.6268 28.5552 39.5339 26.5906 39.3745C25.4887 37.7946 24.4135 36.1088 23.3781 34.3298C22.3691 32.5908 21.453 30.8252 20.6168 29.0462C21.44 27.2671 22.3691 25.4884 23.3648 23.7492C24.4002 21.9571 25.4623 20.2576 26.5642 18.6781C28.5421 18.5056 30.5467 18.4127 32.5647 18.4127C34.5827 18.4127 36.574 18.5056 38.5385 18.665C39.6404 20.2449 40.7156 21.9307 41.751 23.7097C42.76 25.4486 43.6761 27.2143 44.5123 28.9933C43.6761 30.7723 42.76 32.5511 41.7644 34.2903ZM46.0524 32.5644C46.7693 34.3434 47.3799 36.1222 47.8842 37.8481C46.1453 38.2728 44.3131 38.6314 42.4148 38.9102C43.0652 37.8878 43.7159 36.8394 44.3265 35.7639C44.9371 34.7017 45.508 33.6266 46.0524 32.5644ZM32.5911 46.7292C31.3565 45.4548 30.1219 44.0344 28.9007 42.481C30.0955 42.5341 31.3168 42.5739 32.5514 42.5739C33.786 42.5739 35.0339 42.5475 36.2418 42.481C35.047 44.0341 33.8124 45.4545 32.5911 46.7292ZM22.7144 38.9099C20.8294 38.6311 19.0106 38.2859 17.2713 37.8611C17.7626 36.1486 18.3732 34.3829 19.0634 32.6173C19.6078 33.6794 20.1787 34.7412 20.8023 35.8034C21.426 36.8655 22.0634 37.9009 22.7141 38.9099H22.7144ZM32.5249 11.2839C33.7595 12.5582 34.9941 13.9787 36.2154 15.5321C35.0206 15.4789 33.7993 15.4392 32.5647 15.4392C31.3301 15.4392 30.0822 15.4656 28.8743 15.5321C30.0691 13.979 31.3037 12.5585 32.5249 11.2839ZM22.7013 19.1032C22.0509 20.1252 21.4002 21.174 20.7896 22.2495C20.179 23.3116 19.6081 24.3734 19.0637 25.4356C18.3468 23.6566 17.7362 21.8778 17.2318 20.1519C18.9708 19.7405 20.8029 19.3819 22.7013 19.1032ZM10.6872 35.7238C5.98776 33.7192 2.94772 31.0906 2.94772 29.0064C2.94772 26.9222 5.98776 24.2802 10.6872 22.289C11.8289 21.7977 13.0768 21.3598 14.3646 20.9481C15.1212 23.55 16.1169 26.2581 17.3515 29.0328C16.1302 31.7941 15.1477 34.4889 14.4043 37.0777C13.0902 36.6663 11.8422 36.2148 10.6872 35.7235V35.7238ZM17.8294 54.6943C16.024 53.6589 15.2406 49.7161 15.8515 44.6447C15.9975 43.3968 16.2365 42.0826 16.5286 40.7417C19.1305 41.3791 21.9716 41.8701 24.9585 42.1889C26.7506 44.6447 28.6092 46.875 30.4811 48.8265C26.1534 52.8488 22.091 55.0526 19.33 55.0526C18.7327 55.0392 18.2281 54.9199 17.83 54.6943H17.8294ZM49.3186 44.5785C49.9426 49.6496 49.1726 53.5924 47.3805 54.6411C46.9821 54.8801 46.4644 54.9864 45.8538 54.9864C43.1059 54.9864 39.0304 52.7959 34.7026 48.8C36.5612 46.8485 38.4198 44.6317 40.1854 42.1755C43.1857 41.857 46.0266 41.3657 48.6284 40.7153C48.9339 42.0562 49.1729 43.3439 49.3186 44.5785ZM54.4295 35.7238C53.2878 36.2151 52.0398 36.6529 50.7521 37.0647C49.9954 34.4628 48.9998 31.7546 47.7652 28.98C48.9865 26.2187 49.969 23.5239 50.7123 20.935C52.0265 21.3465 53.2744 21.798 54.4428 22.2893C59.1423 24.2939 62.1823 26.9225 62.1823 29.0067C62.169 31.0909 59.1289 33.7328 54.4295 35.7241V35.7238Z" fill="#61DAFB"/>
<path d="M32.5511 35.0734C35.9017 35.0734 38.6178 32.3572 38.6178 29.0067C38.6178 25.6561 35.9017 22.9399 32.5511 22.9399C29.2005 22.9399 26.4844 25.6561 26.4844 29.0067C26.4844 32.3572 29.2005 35.0734 32.5511 35.0734Z" fill="#61DAFB"/>
</g>
<defs>
<clipPath id="clip0_1_678">
<rect width="65.1288" height="58" fill="white"/>
</clipPath>
</defs>
</svg>
